<svg
  width="373"
  height="419"
  viewBox="0 0 373 419"
  fill="none"
  xmlns="http://www.w3.org/2000/svg"
>
  <path
    fill-rule="evenodd"
    clip-rule="evenodd"
    d="M369.602 111.88C367.225 117.933 363.67 123.451 359.144 128.113V128.099C349.943 137.566 337.398 143.03 324.215 143.313C311.032 143.596 298.266 138.674 288.669 129.61C267.38 109.476 239.104 98.4428 209.836 98.8515C180.568 99.2603 152.609 111.078 131.888 131.8C121.692 141.995 113.603 154.106 108.084 167.439C102.564 180.772 99.7233 195.065 99.7233 209.5C99.7233 223.935 102.564 238.228 108.084 251.561C113.603 264.894 121.692 277.005 131.888 287.2C152.609 307.922 180.568 319.74 209.836 320.148C239.104 320.557 267.38 309.524 288.669 289.39C298.265 280.327 311.03 275.406 324.212 275.686C337.394 275.966 349.94 281.425 359.144 290.887C363.67 295.549 367.225 301.067 369.602 307.12C371.979 313.173 373.13 319.64 372.988 326.143C372.847 332.647 371.415 339.057 368.777 345C366.139 350.943 362.347 356.301 357.622 360.76C327.735 389.155 290.24 408.205 249.723 415.581C209.205 422.957 167.422 418.339 129.481 402.292C91.5406 386.245 59.0882 359.464 36.0926 325.224C13.0969 290.984 0.554755 250.77 0 209.5C0.554755 168.23 13.0969 128.016 36.0926 93.776C59.0882 59.5365 91.5406 32.7554 129.481 16.7081C167.422 0.660718 209.205 -3.95737 249.723 3.41858C290.24 10.7945 327.735 29.8448 357.622 58.2396C362.347 62.6993 366.139 68.0568 368.777 74.0001C371.415 79.9433 372.847 86.3533 372.988 92.8567C373.13 99.36 371.979 105.827 369.602 111.88ZM260.758 208.58C260.907 235.64 238.842 257.699 211.473 257.85C184.104 258.001 161.795 236.188 161.646 209.129C161.496 182.069 183.562 160.011 210.931 159.859C238.3 159.708 260.608 181.521 260.758 208.58Z"
    fill="url(#paint0_linear_5702_819)"
  />
  <defs>
    <linearGradient
      id="paint0_linear_5702_819"
      x1="-22.4793"
      y1="49.1882"
      x2="373.249"
      y2="268.588"
      gradientUnits="userSpaceOnUse"
    >
      <stop stop-color="#00A5F0" />
      <stop offset="1" stop-color="#00D7D7" stop-opacity="0" />
    </linearGradient>
  </defs>
</svg>
