<svg width="484" height="484" viewBox="0 0 484 484" fill="none" xmlns="http://www.w3.org/2000/svg">
<path d="M242 0.0025421C178.206 -0.291165 116.899 24.8762 71.5316 69.9837C26.1639 115.091 0.439386 176.455 0 240.614C0 305.164 25.4959 367.07 70.8797 412.714C116.264 458.358 177.818 484 242 484C306.182 484 367.735 458.358 413.119 412.714C458.503 367.07 484 305.164 484 240.614C483.561 176.455 457.835 115.091 412.467 69.9837C367.1 24.8762 305.794 -0.291165 242 0.0025421V0.0025421ZM242 367.694C217.068 367.409 192.777 359.713 172.185 345.575C151.592 331.436 135.619 311.488 126.274 288.239C116.93 264.991 114.631 239.482 119.67 214.923C124.708 190.364 136.858 167.853 154.589 150.223C172.32 132.594 194.84 120.633 219.314 115.846C243.789 111.06 269.125 113.662 292.133 123.325C315.141 132.988 334.792 149.281 348.614 170.151C362.435 191.022 369.81 215.538 369.808 240.614C369.713 257.398 366.331 273.999 359.857 289.47C353.382 304.94 343.942 318.976 332.074 330.776C320.205 342.577 306.142 351.911 290.688 358.245C275.233 364.579 258.689 367.79 242 367.694Z" fill="url(#paint0_linear_5737_2606)"/>
<path fill-rule="evenodd" clip-rule="evenodd" d="M295.853 229.734C296.046 229.929 296.274 230.082 296.525 230.184C296.775 230.286 297.043 230.336 297.312 230.33C297.581 230.324 297.846 230.262 298.092 230.148C298.338 230.035 298.56 229.872 298.744 229.668C299.919 228.382 300.708 226.767 301.013 225.023C301.318 223.279 301.127 221.48 300.463 219.847C299.799 218.213 298.691 216.816 297.274 215.826C295.857 214.836 294.193 214.297 292.485 214.273C290.777 214.297 289.113 214.836 287.696 215.826C286.279 216.816 285.171 218.213 284.507 219.847C283.843 221.48 283.652 223.279 283.957 225.023C284.262 226.767 285.051 228.382 286.226 229.668C286.41 229.872 286.632 230.035 286.878 230.148C287.124 230.262 287.389 230.324 287.658 230.33C287.927 230.336 288.195 230.286 288.445 230.184C288.696 230.082 288.924 229.929 289.117 229.734C289.509 229.338 289.735 228.797 289.746 228.23C289.758 227.662 289.554 227.113 289.179 226.7C288.346 225.783 287.889 224.566 287.906 223.306C287.923 222.046 288.412 220.842 289.27 219.95C289.692 219.511 290.193 219.163 290.744 218.926C291.296 218.688 291.888 218.566 292.485 218.566C293.082 218.566 293.674 218.688 294.225 218.926C294.777 219.163 295.278 219.511 295.7 219.95C296.558 220.842 297.047 222.046 297.064 223.306C297.081 224.566 296.624 225.783 295.791 226.7C295.416 227.113 295.212 227.663 295.224 228.23C295.236 228.798 295.462 229.338 295.853 229.734L295.853 229.734ZM301.153 262.749C301.164 260.035 300.138 257.426 298.299 255.496C296.46 253.566 293.958 252.471 291.343 252.452C290.053 252.45 288.776 252.715 287.586 253.233C286.396 253.75 285.317 254.509 284.414 255.465C284.031 255.869 283.816 256.414 283.816 256.982C283.816 257.549 284.031 258.094 284.414 258.499C284.603 258.698 284.828 258.856 285.076 258.964C285.324 259.072 285.591 259.128 285.86 259.128C286.129 259.128 286.396 259.072 286.644 258.964C286.892 258.856 287.118 258.698 287.306 258.499C287.834 257.942 288.463 257.499 289.157 257.198C289.852 256.896 290.597 256.74 291.349 256.74C292.102 256.74 292.847 256.896 293.541 257.198C294.235 257.499 294.864 257.942 295.392 258.499C296.465 259.631 297.066 261.155 297.066 262.743C297.066 264.331 296.465 265.856 295.392 266.988C294.864 267.545 294.235 267.987 293.541 268.289C292.847 268.591 292.102 268.746 291.349 268.746C290.597 268.746 289.852 268.591 289.157 268.289C288.463 267.987 287.834 267.545 287.306 266.988C287.118 266.789 286.893 266.63 286.644 266.522C286.396 266.414 286.13 266.359 285.86 266.359C285.591 266.359 285.325 266.414 285.076 266.522C284.828 266.63 284.603 266.789 284.414 266.988C284.031 267.392 283.816 267.937 283.816 268.505C283.816 269.072 284.031 269.617 284.414 270.022C285.317 270.98 286.395 271.741 287.584 272.261C288.774 272.78 290.052 273.048 291.343 273.048C293.959 273.029 296.46 271.934 298.299 270.003C300.138 268.073 301.164 265.464 301.153 262.749ZM301.153 241.183C301.164 238.784 300.257 236.478 298.632 234.772C297.007 233.066 294.796 232.098 292.484 232.082C290.159 232.082 287.928 233.041 286.284 234.747C284.639 236.454 283.715 238.77 283.715 241.183C283.715 243.597 284.639 245.913 286.284 247.619C287.928 249.326 290.159 250.285 292.484 250.285C294.796 250.269 297.007 249.301 298.632 247.595C300.257 245.889 301.164 243.583 301.153 241.183ZM287.906 241.183C287.916 240.246 288.193 239.332 288.703 238.558C289.212 237.783 289.931 237.182 290.768 236.831C291.606 236.479 292.525 236.393 293.41 236.582C294.295 236.772 295.106 237.229 295.741 237.896C296.376 238.563 296.807 239.41 296.979 240.33C297.152 241.251 297.058 242.204 296.71 243.069C296.362 243.934 295.775 244.674 295.023 245.193C294.271 245.713 293.388 245.991 292.484 245.991C291.879 245.987 291.281 245.86 290.724 245.616C290.167 245.373 289.661 245.018 289.236 244.571C288.811 244.125 288.474 243.596 288.246 243.015C288.018 242.433 287.902 241.811 287.906 241.183ZM298.298 194.464C300.137 196.395 301.163 199.003 301.152 201.718C301.163 204.433 300.137 207.041 298.298 208.971C296.459 210.902 293.957 211.997 291.342 212.016C290.051 212.016 288.774 211.748 287.584 211.228C286.394 210.709 285.316 209.948 284.414 208.99C284.031 208.585 283.816 208.04 283.816 207.473C283.816 206.905 284.031 206.36 284.414 205.956C284.603 205.757 284.828 205.598 285.076 205.49C285.325 205.382 285.591 205.327 285.86 205.327C286.129 205.327 286.396 205.382 286.644 205.49C286.893 205.598 287.118 205.757 287.307 205.956C287.834 206.513 288.464 206.955 289.158 207.257C289.852 207.559 290.597 207.715 291.35 207.715C292.102 207.715 292.847 207.559 293.542 207.257C294.236 206.955 294.865 206.513 295.393 205.956C296.466 204.824 297.067 203.299 297.067 201.711C297.067 200.123 296.466 198.598 295.393 197.466C294.865 196.909 294.236 196.467 293.542 196.165C292.847 195.863 292.102 195.707 291.35 195.707C290.597 195.707 289.852 195.863 289.158 196.165C288.464 196.467 287.834 196.909 287.307 197.466C287.118 197.665 286.893 197.823 286.644 197.931C286.396 198.039 286.129 198.095 285.86 198.095C285.591 198.095 285.325 198.039 285.076 197.931C284.828 197.823 284.603 197.665 284.414 197.466C284.031 197.061 283.816 196.517 283.816 195.949C283.816 195.382 284.031 194.837 284.414 194.432C285.317 193.477 286.396 192.718 287.585 192.201C288.775 191.684 290.052 191.418 291.342 191.42C293.957 191.439 296.459 192.534 298.298 194.464ZM292.496 225.519C291.367 225.525 290.447 224.57 290.441 223.385C290.434 222.2 291.344 221.234 292.473 221.228C293.602 221.221 294.522 222.176 294.528 223.361C294.534 224.546 293.624 225.512 292.496 225.519Z" fill="#C4F3F7"/>
<defs>
<linearGradient id="paint0_linear_5737_2606" x1="535.668" y1="483.975" x2="41.1578" y2="264.406" gradientUnits="userSpaceOnUse">
<stop stop-color="#00A5F0"/>
<stop offset="1" stop-color="#00D7D7" stop-opacity="0"/>
</linearGradient>
</defs>
</svg>
