<svg
  width="64"
  height="64"
  viewBox="0 0 64 64"
  fill="none"
  xmlns="http://www.w3.org/2000/svg"
>
  <rect width="64" height="64" rx="8" fill="url(#paint0_linear_5715_1435)" />
  <path
    d="M31.9998 18.2355C27.6656 18.2179 23.5009 19.848 20.4189 22.7682C17.3369 25.6884 15.5891 29.6606 15.5586 33.8138C15.5556 35.862 15.9794 37.8901 16.8052 39.7793C17.631 41.6685 18.8422 43.3806 20.3676 44.8154C21.0139 45.4238 21.8836 45.7648 22.7896 45.7648C23.6956 45.7648 24.5653 45.4238 25.2115 44.8154C25.5295 44.5155 25.7821 44.158 25.9544 43.7637C26.1268 43.3694 26.2156 42.9462 26.2156 42.5187C26.2156 42.0912 26.1268 41.6679 25.9544 41.2736C25.7821 40.8793 25.5295 40.5219 25.2115 40.222C24.3222 39.384 23.616 38.3847 23.1338 37.2824C22.6517 36.1801 22.4034 34.9969 22.4034 33.8017C22.4034 32.6065 22.6517 31.4233 23.1338 30.321C23.616 29.2187 24.3222 28.2194 25.2115 27.3814C27.0191 25.6774 29.4531 24.7225 31.9886 24.7225C34.5242 24.7225 36.9582 25.6774 38.7657 27.3814C39.655 28.2194 40.3613 29.2187 40.8434 30.321C41.3256 31.4233 41.5739 32.6065 41.5739 33.8017C41.5739 34.9969 41.3256 36.1801 40.8434 37.2824C40.3613 38.3847 39.655 39.384 38.7657 40.222C38.4478 40.5219 38.1952 40.8793 38.0228 41.2736C37.8505 41.6679 37.7617 42.0912 37.7617 42.5187C37.7617 42.9462 37.8505 43.3694 38.0228 43.7637C38.1952 44.158 38.4478 44.5155 38.7657 44.8154C39.412 45.4238 40.2817 45.7648 41.1877 45.7648C42.0937 45.7648 42.9634 45.4238 43.6096 44.8154C45.1391 43.3824 46.3544 41.6711 47.184 39.7818C48.0137 37.8926 48.441 35.8635 48.4409 33.8138C48.4105 29.6606 46.6626 25.6884 43.5806 22.7682C40.4986 19.848 36.334 18.2179 31.9998 18.2355V18.2355Z"
    fill="white"
  />
  <defs>
    <linearGradient
      id="paint0_linear_5715_1435"
      x1="0.644442"
      y1="19.5122"
      x2="66.7608"
      y2="31.7941"
      gradientUnits="userSpaceOnUse"
    >
      <stop stop-color="#00A5F0" />
      <stop offset="1" stop-color="#00D7D7" />
    </linearGradient>
  </defs>
</svg>
