<svg
  width="28"
  height="28"
  viewBox="0 0 28 28"
  fill="none"
  stroke="currentColor"
  xmlns="http://www.w3.org/2000/svg"
>
  <path
    d="M19.8703 14.5447C19.8913 14.5657 19.8913 14.5995 19.8703 14.6205C19.8493 14.6415 19.8154 14.6415 19.7944 14.6205C19.7734 14.5995 19.7734 14.5657 19.7944 14.5447C19.8154 14.5237 19.8504 14.5249 19.8703 14.5447"
    stroke-width="1.5"
    stroke-linecap="round"
    stroke-linejoin="round"
  />
  <path
    d="M17.1053 8.72417C17.3515 8.198 17.4997 7.61817 17.4997 6.99984C17.4997 4.74467 15.6715 2.9165 13.4163 2.9165C11.1612 2.9165 9.33301 4.74467 9.33301 6.99984C9.33301 7.72667 9.53834 8.39984 9.87201 8.99017"
    stroke-width="1.5"
    stroke-linecap="round"
    stroke-linejoin="round"
  />
  <path
    d="M2.66933 12.25C2.12217 12.5685 1.75 13.1553 1.75 13.8343C1.75 14.8505 2.57367 15.6742 3.58983 15.6742H4.66667"
    stroke-width="1.5"
    stroke-linecap="round"
    stroke-linejoin="round"
  />
  <path
    fill-rule="evenodd"
    clip-rule="evenodd"
    d="M21.5837 7.5835V10.5632C22.4213 11.3192 23.0863 12.2618 23.4807 13.341H24.5003C25.1443 13.341 25.667 13.8637 25.667 14.5077V18.0835C25.667 18.7275 25.1443 19.2502 24.5003 19.2502H22.9708C22.3583 20.3095 21.474 21.1915 20.417 21.8063V23.9168C20.417 24.5608 19.8943 25.0835 19.2503 25.0835H16.917C16.273 25.0835 15.7503 24.5608 15.7503 23.9168V22.7502H11.667V23.7628C11.667 24.4068 11.1443 24.9295 10.5003 24.9295H8.16699C7.52299 24.9295 7.00033 24.4068 7.00033 23.7628V20.957C5.57116 19.6748 4.66699 17.821 4.66699 15.7502C4.66699 11.8838 7.80066 8.75016 11.667 8.75016H16.9473C17.4478 8.75016 17.9332 8.58566 18.3322 8.28466C18.9143 7.846 19.633 7.5835 20.417 7.5835H21.5837V7.5835Z"
    stroke-width="1.5"
    stroke-linecap="round"
    stroke-linejoin="round"
  />
</svg>
