<svg width="226" height="472" viewBox="0 0 226 472" fill="none" xmlns="http://www.w3.org/2000/svg">
<path fill-rule="evenodd" clip-rule="evenodd" d="M192.389 0.336426H32.7231C14.6506 0.336426 0 14.9871 0 33.0595V439.277C0 457.35 14.6506 472 32.7231 472H192.389C210.462 472 225.112 457.35 225.112 439.277V33.0595C225.112 14.9871 210.462 0.336426 192.389 0.336426ZM6.77029 33.0595C6.77029 18.7262 18.3897 7.10672 32.7231 7.10672H49.1319C51.0762 7.79088 52.4698 9.64365 52.4698 11.8218C52.4698 18.7214 58.063 24.3145 64.9626 24.3145H159.586C166.485 24.3145 172.078 18.7214 172.078 11.8218C172.078 9.64365 173.472 7.79088 175.416 7.10672H192.389C206.722 7.10672 218.342 18.7262 218.342 33.0595V439.277C218.342 453.61 206.722 465.23 192.389 465.23H32.7231C18.3897 465.23 6.77029 453.61 6.77029 439.277V33.0595Z" fill="url(#paint0_linear_5737_2615)"/>
<g opacity="0.6">
<circle cx="99" cy="13.8228" r="2" fill="#DFDFE6"/>
<rect x="103.667" y="11.8228" width="25.3333" height="4" rx="2" fill="#DFDFE6"/>
</g>
<mask id="mask0_5737_2615" style="mask-type:alpha" maskUnits="userSpaceOnUse" x="6" y="7" width="213" height="459">
<path fill-rule="evenodd" clip-rule="evenodd" d="M6.80577 31.6946C6.78236 32.1465 6.77051 32.6015 6.77051 33.0592V439.277C6.77051 453.61 18.3899 465.23 32.7233 465.23H192.389C206.723 465.23 218.342 453.61 218.342 439.277V33.0592C218.342 33.0032 218.342 32.9473 218.342 32.8914C218.251 18.6353 206.667 7.10645 192.389 7.10645H175.416C173.472 7.79061 172.078 9.64338 172.078 11.8215C172.078 18.7211 166.485 24.3143 159.586 24.3143H64.9628C58.0632 24.3143 52.47 18.7211 52.47 11.8215C52.47 9.64338 51.0764 7.79061 49.1321 7.10645H32.7233C26.2563 7.10645 20.3417 9.47183 15.7976 13.3846C14.047 14.892 12.4999 16.6289 11.2028 18.5488C8.64281 22.3381 7.05726 26.8399 6.80577 31.6946Z" fill="black"/>
</mask>
<g mask="url(#mask0_5737_2615)">
<path d="M6.7666 7.10645H218.338V465.23H6.7666V7.10645Z" fill="url(#paint1_linear_5737_2615)"/>
<rect x="6.50781" y="7.27051" width="211.364" height="457.674" rx="9.0182" fill="url(#paint2_linear_5737_2615)"/>
<path fill-rule="evenodd" clip-rule="evenodd" d="M183.057 81.2421C182.921 81.5274 182.515 81.5274 182.379 81.2421L179.634 75.4868H179.347L176.602 81.2423C176.466 81.5277 176.06 81.5277 175.924 81.2423L173.179 75.4868H172.906L170.162 81.2421C170.026 81.5274 169.619 81.5274 169.483 81.2421L166.738 75.4868H166.466L163.721 81.2423C163.585 81.5277 163.179 81.5277 163.043 81.2423L160.298 75.4868H160.026L157.281 81.2421C157.145 81.5274 156.739 81.5274 156.602 81.2421L153.858 75.4868H153.585L150.84 81.2421C150.704 81.5274 150.298 81.5274 150.162 81.2421L147.417 75.4868H147.145L144.4 81.2421C144.264 81.5274 143.858 81.5274 143.722 81.2421L140.977 75.4868H140.704L137.959 81.2421C137.823 81.5274 137.417 81.5274 137.281 81.2421L134.536 75.4868H134.263L131.518 81.2421C131.382 81.5274 130.976 81.5274 130.84 81.2421L128.095 75.4868H127.823L125.078 81.2421C124.942 81.5274 124.535 81.5274 124.399 81.2421L121.654 75.4868H121.382L118.637 81.2421C118.501 81.5274 118.095 81.5274 117.959 81.2421L115.214 75.4868H114.942L112.197 81.2422C112.061 81.5275 111.655 81.5275 111.518 81.2422L108.774 75.4868H108.501L105.756 81.2422C105.62 81.5275 105.214 81.5275 105.078 81.2422L102.333 75.4868H102.061L99.3159 81.2422C99.1798 81.5275 98.7737 81.5275 98.6376 81.2422L95.8927 75.4868H95.6203L92.8754 81.2422C92.7393 81.5275 92.3332 81.5275 92.1971 81.2422L89.4522 75.4868H89.1798L86.4349 81.2422C86.2989 81.5275 85.8927 81.5275 85.7566 81.2422L83.0117 75.4868H82.7395L79.9946 81.2421C79.8585 81.5274 79.4524 81.5274 79.3163 81.2421L76.5715 75.4868H76.2991L73.5542 81.2421C73.4181 81.5274 73.012 81.5274 72.8759 81.2421L70.131 75.4868H69.8586L67.1138 81.2421C66.9777 81.5274 66.5715 81.5274 66.4355 81.2421L63.6906 75.4868H63.4174L60.6725 81.2422C60.5364 81.5275 60.1303 81.5275 59.9942 81.2422L57.2493 75.4868H56.9771L54.2321 81.2423C54.096 81.5277 53.6899 81.5277 53.5538 81.2423L50.8088 75.4868H50.5364L47.7915 81.2421C47.6554 81.5274 47.2493 81.5274 47.1132 81.2421L44.3683 75.4868H44.0962L41.3512 81.2423C41.2152 81.5277 40.809 81.5277 40.6729 81.2423L37.928 75.4868H37.6555L34.9105 81.2423C34.7744 81.5277 34.3683 81.5277 34.2322 81.2423L31.4872 75.4868H31.2152L28.4703 81.2423C28.3342 81.5277 27.928 81.5277 27.7919 81.2423L25.047 75.4868H24.5439V376.845H199.108V75.4868H198.713L195.968 81.2421C195.832 81.5274 195.426 81.5274 195.29 81.2421L192.545 75.4868H192.258L189.513 81.2423C189.377 81.5277 188.971 81.5277 188.835 81.2423L186.09 75.4868H185.802L183.057 81.2421Z" fill="#FBF9BE"/>
<rect opacity="0.6" x="24.5439" y="334.009" width="174.728" height="37.5758" fill="url(#paint3_linear_5737_2615)"/>
<path d="M15.1504 360.312H208.666V379.851C208.666 381.512 207.32 382.858 205.66 382.858H18.1565C16.4963 382.858 15.1504 381.512 15.1504 379.851V360.312Z" fill="#0896D7"/>
<path d="M24.5443 360.312H15.1504L24.5443 355.427V360.312Z" fill="#0888C2"/>
<path d="M199.272 360.312H208.666L199.272 355.427V360.312Z" fill="#0888C2"/>
<path d="M73.3144 54.082C73.3144 53.2564 73.4988 52.5189 73.8675 51.8696C74.2443 51.2122 74.7533 50.7032 75.3946 50.3425C76.0439 49.9737 76.7694 49.7894 77.571 49.7894C78.5089 49.7894 79.3305 50.0299 80.036 50.5108C80.7414 50.9918 81.2344 51.6571 81.515 52.5069H79.579C79.3867 52.106 79.1141 51.8054 78.7614 51.605C78.4167 51.4046 78.0159 51.3044 77.559 51.3044C77.07 51.3044 76.6331 51.4207 76.2483 51.6531C75.8716 51.8776 75.575 52.1982 75.3585 52.6151C75.1501 53.0319 75.0459 53.5209 75.0459 54.082C75.0459 54.6352 75.1501 55.1241 75.3585 55.549C75.575 55.9658 75.8716 56.2905 76.2483 56.523C76.6331 56.7474 77.07 56.8596 77.559 56.8596C78.0159 56.8596 78.4167 56.7594 78.7614 56.559C79.1141 56.3506 79.3867 56.046 79.579 55.6452H81.515C81.2344 56.5029 80.7414 57.1723 80.036 57.6532C79.3386 58.1262 78.5169 58.3627 77.571 58.3627C76.7694 58.3627 76.0439 58.1823 75.3946 57.8216C74.7533 57.4528 74.2443 56.9438 73.8675 56.2945C73.4988 55.6452 73.3144 54.9077 73.3144 54.082ZM85.9108 58.3987C85.2695 58.3987 84.6923 58.2585 84.1793 57.9779C83.6662 57.6893 83.2614 57.2845 82.9648 56.7634C82.6762 56.2424 82.5319 55.6412 82.5319 54.9598C82.5319 54.2784 82.6802 53.6772 82.9768 53.1562C83.2815 52.6351 83.6943 52.2343 84.2153 51.9537C84.7364 51.6652 85.3176 51.5209 85.9589 51.5209C86.6002 51.5209 87.1813 51.6652 87.7024 51.9537C88.2234 52.2343 88.6323 52.6351 88.9289 53.1562C89.2335 53.6772 89.3858 54.2784 89.3858 54.9598C89.3858 55.6412 89.2295 56.2424 88.9168 56.7634C88.6122 57.2845 88.1954 57.6893 87.6663 57.9779C87.1453 58.2585 86.5601 58.3987 85.9108 58.3987ZM85.9108 56.9318C86.2154 56.9318 86.5 56.8596 86.7645 56.7153C87.037 56.563 87.2535 56.3386 87.4138 56.042C87.5741 55.7454 87.6543 55.3847 87.6543 54.9598C87.6543 54.3265 87.4859 53.8415 87.1493 53.5049C86.8206 53.1602 86.4158 52.9878 85.9348 52.9878C85.4538 52.9878 85.049 53.1602 84.7204 53.5049C84.3997 53.8415 84.2394 54.3265 84.2394 54.9598C84.2394 55.5931 84.3957 56.0821 84.7083 56.4268C85.029 56.7634 85.4298 56.9318 85.9108 56.9318ZM98.8933 51.5329C99.711 51.5329 100.368 51.7854 100.865 52.2904C101.37 52.7874 101.623 53.4848 101.623 54.3826V58.2905H99.9394V54.6111C99.9394 54.0901 99.8071 53.6932 99.5426 53.4207C99.2781 53.1401 98.9174 52.9998 98.4604 52.9998C98.0035 52.9998 97.6388 53.1401 97.3662 53.4207C97.1017 53.6932 96.9694 54.0901 96.9694 54.6111V58.2905H95.286V54.6111C95.286 54.0901 95.1538 53.6932 94.8892 53.4207C94.6247 53.1401 94.264 52.9998 93.807 52.9998C93.3421 52.9998 92.9734 53.1401 92.7008 53.4207C92.4363 53.6932 92.304 54.0901 92.304 54.6111V58.2905H90.6206V51.6291H92.304V52.4347C92.5204 52.1541 92.797 51.9337 93.1337 51.7734C93.4784 51.6131 93.8551 51.5329 94.264 51.5329C94.785 51.5329 95.25 51.6451 95.6588 51.8696C96.0676 52.086 96.3842 52.3986 96.6087 52.8075C96.8251 52.4227 97.1378 52.1141 97.5466 51.8816C97.9634 51.6491 98.4123 51.5329 98.8933 51.5329ZM104.904 52.591C105.12 52.2864 105.417 52.0339 105.793 51.8335C106.178 51.6251 106.615 51.5209 107.104 51.5209C107.673 51.5209 108.186 51.6611 108.643 51.9417C109.108 52.2223 109.473 52.6231 109.737 53.1441C110.01 53.6572 110.146 54.2544 110.146 54.9358C110.146 55.6171 110.01 56.2224 109.737 56.7514C109.473 57.2725 109.108 57.6773 108.643 57.9659C108.186 58.2545 107.673 58.3987 107.104 58.3987C106.615 58.3987 106.182 58.2985 105.805 58.0981C105.437 57.8977 105.136 57.6452 104.904 57.3406V61.4649H103.22V51.6291H104.904V52.591ZM108.427 54.9358C108.427 54.5349 108.343 54.1903 108.174 53.9017C108.014 53.6051 107.797 53.3806 107.525 53.2283C107.26 53.076 106.972 52.9998 106.659 52.9998C106.355 52.9998 106.066 53.08 105.793 53.2403C105.529 53.3926 105.312 53.6171 105.144 53.9137C104.984 54.2103 104.904 54.559 104.904 54.9598C104.904 55.3606 104.984 55.7093 105.144 56.0059C105.312 56.3025 105.529 56.531 105.793 56.6913C106.066 56.8436 106.355 56.9198 106.659 56.9198C106.972 56.9198 107.26 56.8396 107.525 56.6793C107.797 56.519 108.014 56.2905 108.174 55.9939C108.343 55.6973 108.427 55.3446 108.427 54.9358ZM113.053 52.6632C113.269 52.3105 113.55 52.0339 113.895 51.8335C114.247 51.6331 114.648 51.5329 115.097 51.5329V53.3005H114.652C114.123 53.3005 113.722 53.4247 113.45 53.6732C113.185 53.9217 113.053 54.3546 113.053 54.9718V58.2905H111.37V51.6291H113.053V52.6632ZM119.189 58.3987C118.548 58.3987 117.97 58.2585 117.457 57.9779C116.944 57.6893 116.54 57.2845 116.243 56.7634C115.954 56.2424 115.81 55.6412 115.81 54.9598C115.81 54.2784 115.958 53.6772 116.255 53.1562C116.56 52.6351 116.972 52.2343 117.493 51.9537C118.014 51.6652 118.596 51.5209 119.237 51.5209C119.878 51.5209 120.459 51.6652 120.98 51.9537C121.502 52.2343 121.91 52.6351 122.207 53.1562C122.512 53.6772 122.664 54.2784 122.664 54.9598C122.664 55.6412 122.508 56.2424 122.195 56.7634C121.89 57.2845 121.473 57.6893 120.944 57.9779C120.423 58.2585 119.838 58.3987 119.189 58.3987ZM119.189 56.9318C119.493 56.9318 119.778 56.8596 120.043 56.7153C120.315 56.563 120.532 56.3386 120.692 56.042C120.852 55.7454 120.932 55.3847 120.932 54.9598C120.932 54.3265 120.764 53.8415 120.427 53.5049C120.099 53.1602 119.694 52.9878 119.213 52.9878C118.732 52.9878 118.327 53.1602 117.998 53.5049C117.678 53.8415 117.517 54.3265 117.517 54.9598C117.517 55.5931 117.674 56.0821 117.986 56.4268C118.307 56.7634 118.708 56.9318 119.189 56.9318ZM126.676 56.7394L128.36 51.6291H130.151L127.686 58.2905H125.642L123.189 51.6291H124.993L126.676 56.7394ZM130.664 54.9358C130.664 54.2624 130.796 53.6652 131.061 53.1441C131.333 52.6231 131.698 52.2223 132.155 51.9417C132.62 51.6611 133.137 51.5209 133.706 51.5209C134.203 51.5209 134.636 51.6211 135.005 51.8215C135.381 52.0219 135.682 52.2744 135.907 52.579V51.6291H137.602V58.2905H135.907V57.3166C135.69 57.6292 135.389 57.8897 135.005 58.0981C134.628 58.2985 134.191 58.3987 133.694 58.3987C133.133 58.3987 132.62 58.2545 132.155 57.9659C131.698 57.6773 131.333 57.2725 131.061 56.7514C130.796 56.2224 130.664 55.6171 130.664 54.9358ZM135.907 54.9598C135.907 54.551 135.826 54.2023 135.666 53.9137C135.506 53.6171 135.289 53.3926 135.017 53.2403C134.744 53.08 134.452 52.9998 134.139 52.9998C133.826 52.9998 133.538 53.076 133.273 53.2283C133.009 53.3806 132.792 53.6051 132.624 53.9017C132.464 54.1903 132.383 54.5349 132.383 54.9358C132.383 55.3366 132.464 55.6893 132.624 55.9939C132.792 56.2905 133.009 56.519 133.273 56.6793C133.546 56.8396 133.834 56.9198 134.139 56.9198C134.452 56.9198 134.744 56.8436 135.017 56.6913C135.289 56.531 135.506 56.3065 135.666 56.0179C135.826 55.7213 135.907 55.3686 135.907 54.9598ZM142.938 51.5329C143.731 51.5329 144.372 51.7854 144.861 52.2904C145.35 52.7874 145.595 53.4848 145.595 54.3826V58.2905H143.912V54.6111C143.912 54.082 143.779 53.6772 143.515 53.3967C143.25 53.1081 142.889 52.9638 142.433 52.9638C141.968 52.9638 141.599 53.1081 141.326 53.3967C141.062 53.6772 140.929 54.082 140.929 54.6111V58.2905H139.246V51.6291H140.929V52.4588C141.154 52.1702 141.439 51.9457 141.783 51.7854C142.136 51.6171 142.521 51.5329 142.938 51.5329ZM149.156 53.0119V56.2344C149.156 56.4588 149.208 56.6232 149.312 56.7274C149.424 56.8236 149.609 56.8717 149.865 56.8717H150.647V58.2905H149.589C148.17 58.2905 147.46 57.6011 147.46 56.2224V53.0119H146.667V51.6291H147.46V49.9818H149.156V51.6291H150.647V53.0119H149.156ZM158.05 54.8155C158.05 55.056 158.034 55.2724 158.002 55.4648H153.132C153.172 55.9458 153.34 56.3226 153.637 56.5951C153.934 56.8677 154.298 57.0039 154.731 57.0039C155.357 57.0039 155.801 56.7354 156.066 56.1983H157.882C157.689 56.8396 157.321 57.3687 156.775 57.7855C156.23 58.1943 155.561 58.3987 154.767 58.3987C154.126 58.3987 153.549 58.2585 153.036 57.9779C152.531 57.6893 152.134 57.2845 151.845 56.7634C151.565 56.2424 151.425 55.6412 151.425 54.9598C151.425 54.2704 151.565 53.6652 151.845 53.1441C152.126 52.6231 152.519 52.2223 153.024 51.9417C153.529 51.6611 154.11 51.5209 154.767 51.5209C155.401 51.5209 155.966 51.6571 156.463 51.9297C156.968 52.2022 157.357 52.591 157.629 53.096C157.91 53.593 158.05 54.1662 158.05 54.8155ZM156.306 54.3345C156.298 53.9017 156.142 53.557 155.838 53.3005C155.533 53.0359 155.16 52.9037 154.719 52.9037C154.302 52.9037 153.95 53.0319 153.661 53.2884C153.381 53.5369 153.208 53.8856 153.144 54.3345H156.306Z" fill="white"/>
<path fill-rule="evenodd" clip-rule="evenodd" d="M29.5179 50.1724L24.9378 54.7525L25.7349 55.5496L30.315 50.9695L34.8951 55.5496L35.6922 54.7525L31.1121 50.1724L35.6925 45.592L34.8954 44.7949L30.315 49.3753L25.7346 44.7949L24.9375 45.592L29.5179 50.1724Z" fill="white"/>
<path fill-rule="evenodd" clip-rule="evenodd" d="M110.116 107.324C110.245 107.191 110.347 107.034 110.415 106.861C110.483 106.688 110.516 106.504 110.512 106.318C110.508 106.133 110.467 105.95 110.391 105.78C110.316 105.611 110.207 105.458 110.072 105.331C109.218 104.52 108.145 103.977 106.987 103.766C105.828 103.556 104.633 103.688 103.548 104.146C102.463 104.604 101.535 105.368 100.878 106.345C100.22 107.321 99.8615 108.469 99.8456 109.646C99.8615 110.824 100.22 111.971 100.878 112.948C101.535 113.925 102.463 114.689 103.548 115.147C104.633 115.605 105.828 115.737 106.987 115.526C108.145 115.316 109.218 114.772 110.072 113.962C110.207 113.835 110.316 113.682 110.391 113.512C110.467 113.343 110.508 113.16 110.512 112.974C110.516 112.789 110.483 112.604 110.415 112.432C110.347 112.259 110.245 112.101 110.116 111.968C109.853 111.698 109.494 111.543 109.117 111.535C108.74 111.527 108.375 111.667 108.101 111.926C107.492 112.5 106.683 112.815 105.846 112.803C105.009 112.792 104.21 112.454 103.617 111.863C103.326 111.572 103.094 111.227 102.936 110.846C102.779 110.466 102.697 110.058 102.697 109.646C102.697 109.234 102.779 108.827 102.936 108.446C103.094 108.066 103.326 107.72 103.617 107.429C104.21 106.838 105.009 106.501 105.846 106.489C106.683 106.478 107.492 106.792 108.101 107.367C108.375 107.626 108.74 107.766 109.117 107.758C109.494 107.75 109.853 107.594 110.116 107.324V107.324ZM117.723 103.67C116.129 103.663 114.597 104.288 113.464 105.408C112.33 106.529 111.688 108.053 111.677 109.647C111.677 111.251 112.314 112.789 113.448 113.922C114.581 115.056 116.119 115.693 117.723 115.693C119.326 115.693 120.864 115.056 121.998 113.922C123.132 112.789 123.769 111.251 123.769 109.647C123.758 108.053 123.115 106.529 121.982 105.408C120.848 104.288 119.317 103.663 117.723 103.67ZM117.723 112.804C117.1 112.797 116.493 112.606 115.979 112.255C115.464 111.903 115.065 111.408 114.831 110.83C114.598 110.253 114.541 109.619 114.666 109.009C114.792 108.399 115.096 107.84 115.539 107.402C115.982 106.964 116.545 106.667 117.156 106.548C117.767 106.429 118.4 106.493 118.975 106.734C119.55 106.974 120.041 107.378 120.386 107.897C120.732 108.415 120.916 109.024 120.916 109.647C120.914 110.064 120.829 110.476 120.667 110.861C120.506 111.245 120.27 111.594 119.973 111.887C119.677 112.18 119.325 112.412 118.939 112.569C118.553 112.727 118.14 112.806 117.723 112.804ZM132.047 103.67C130.244 103.662 128.511 104.37 127.229 105.638C125.947 106.906 125.22 108.631 125.207 110.434C125.206 111.323 125.382 112.204 125.726 113.025C126.069 113.845 126.573 114.589 127.208 115.212C127.477 115.476 127.839 115.624 128.216 115.624C128.593 115.624 128.955 115.476 129.224 115.212C129.356 115.081 129.461 114.926 129.533 114.755C129.604 114.584 129.641 114.4 129.641 114.214C129.641 114.029 129.604 113.845 129.533 113.674C129.461 113.503 129.356 113.347 129.224 113.217C128.854 112.853 128.56 112.419 128.359 111.941C128.159 111.462 128.055 110.949 128.055 110.43C128.055 109.911 128.159 109.397 128.359 108.919C128.56 108.44 128.854 108.006 129.224 107.642C129.976 106.902 130.988 106.488 132.043 106.488C133.098 106.488 134.111 106.902 134.863 107.642C135.232 108.006 135.526 108.44 135.727 108.919C135.927 109.397 136.031 109.911 136.031 110.43C136.031 110.949 135.927 111.462 135.727 111.941C135.526 112.419 135.232 112.853 134.863 113.217C134.73 113.347 134.625 113.502 134.553 113.674C134.482 113.845 134.445 114.029 134.445 114.214C134.445 114.4 134.482 114.583 134.553 114.755C134.625 114.926 134.73 115.081 134.863 115.211C135.131 115.475 135.493 115.623 135.87 115.623C136.247 115.623 136.609 115.475 136.878 115.211C137.514 114.589 138.02 113.846 138.365 113.025C138.71 112.205 138.888 111.324 138.888 110.434C138.875 108.631 138.148 106.906 136.866 105.638C135.583 104.37 133.85 103.662 132.047 103.67ZM86.6882 105.639C87.9705 104.371 89.7033 103.663 91.5066 103.671C93.3099 103.663 95.0426 104.371 96.3249 105.639C97.6072 106.907 98.3344 108.631 98.3471 110.435C98.3471 111.325 98.1693 112.206 97.8241 113.026C97.479 113.846 96.9733 114.589 96.337 115.212C96.0681 115.476 95.7062 115.624 95.3293 115.624C94.9523 115.624 94.5905 115.476 94.3216 115.212C94.1893 115.081 94.0842 114.926 94.0125 114.755C93.9408 114.584 93.9039 114.4 93.9039 114.214C93.9039 114.029 93.9408 113.845 94.0125 113.674C94.0842 113.503 94.1893 113.347 94.3216 113.217C94.6916 112.853 94.9855 112.419 95.1861 111.941C95.3866 111.462 95.49 110.948 95.49 110.43C95.49 109.911 95.3866 109.397 95.1861 108.918C94.9855 108.44 94.6916 108.006 94.3216 107.642C93.5696 106.902 92.5569 106.487 91.5019 106.487C90.447 106.487 89.4343 106.902 88.6822 107.642C88.3122 108.006 88.0184 108.44 87.8178 108.918C87.6172 109.397 87.5139 109.911 87.5139 110.43C87.5139 110.948 87.6172 111.462 87.8178 111.941C88.0184 112.419 88.3122 112.853 88.6822 113.217C88.8145 113.347 88.9196 113.503 88.9913 113.674C89.063 113.845 89.1 114.029 89.1 114.214C89.1 114.4 89.063 114.584 88.9913 114.755C88.9196 114.926 88.8145 115.081 88.6822 115.212C88.4134 115.476 88.0515 115.624 87.6746 115.624C87.2976 115.624 86.9357 115.476 86.6669 115.212C86.0322 114.589 85.5283 113.845 85.1847 113.025C84.8411 112.205 84.6648 111.324 84.666 110.435C84.6787 108.631 85.4059 106.907 86.6882 105.639ZM107.316 109.639C107.321 110.417 106.686 111.052 105.899 111.056C105.112 111.06 104.47 110.433 104.466 109.655C104.461 108.876 105.096 108.242 105.883 108.238C106.67 108.233 107.312 108.861 107.316 109.639Z" fill="#0073CE"/>
<rect x="44.835" y="412.713" width="133.723" height="27.4304" rx="13.7152" fill="white"/>
<path d="M80.038 426.657C80.038 426.029 80.1782 425.468 80.4586 424.974C80.7451 424.474 81.1321 424.087 81.6198 423.813C82.1135 423.533 82.6652 423.393 83.2748 423.393C83.9879 423.393 84.6127 423.575 85.1492 423.941C85.6856 424.307 86.0605 424.813 86.2738 425.459H84.8017C84.6554 425.154 84.4482 424.926 84.18 424.773C83.9178 424.621 83.6131 424.545 83.2656 424.545C82.8938 424.545 82.5616 424.633 82.269 424.81C81.9825 424.98 81.7569 425.224 81.5924 425.541C81.4339 425.858 81.3546 426.23 81.3546 426.657C81.3546 427.077 81.4339 427.449 81.5924 427.772C81.7569 428.089 81.9825 428.336 82.269 428.513C82.5616 428.684 82.8938 428.769 83.2656 428.769C83.6131 428.769 83.9178 428.693 84.18 428.54C84.4482 428.382 84.6554 428.15 84.8017 427.845H86.2738C86.0605 428.498 85.6856 429.007 85.1492 429.372C84.6188 429.732 83.994 429.912 83.2748 429.912C82.6652 429.912 82.1135 429.775 81.6198 429.5C81.1321 429.22 80.7451 428.833 80.4586 428.339C80.1782 427.845 80.038 427.285 80.038 426.657ZM89.6165 429.939C89.1288 429.939 88.6899 429.833 88.2998 429.619C87.9097 429.4 87.6018 429.092 87.3763 428.696C87.1569 428.299 87.0471 427.842 87.0471 427.324C87.0471 426.806 87.1599 426.349 87.3855 425.953C87.6171 425.556 87.931 425.252 88.3272 425.038C88.7234 424.819 89.1654 424.709 89.653 424.709C90.1407 424.709 90.5826 424.819 90.9788 425.038C91.375 425.252 91.6859 425.556 91.9115 425.953C92.1431 426.349 92.2589 426.806 92.2589 427.324C92.2589 427.842 92.14 428.299 91.9023 428.696C91.6707 429.092 91.3537 429.4 90.9514 429.619C90.5552 429.833 90.1102 429.939 89.6165 429.939ZM89.6165 428.824C89.8481 428.824 90.0645 428.769 90.2656 428.659C90.4729 428.543 90.6375 428.373 90.7594 428.147C90.8813 427.922 90.9423 427.647 90.9423 427.324C90.9423 426.843 90.8142 426.474 90.5582 426.218C90.3083 425.956 90.0005 425.825 89.6347 425.825C89.269 425.825 88.9612 425.956 88.7113 426.218C88.4674 426.474 88.3455 426.843 88.3455 427.324C88.3455 427.806 88.4644 428.178 88.7021 428.44C88.9459 428.696 89.2507 428.824 89.6165 428.824ZM99.4886 424.718C100.11 424.718 100.61 424.91 100.988 425.294C101.372 425.672 101.564 426.203 101.564 426.885V429.857H100.284V427.059C100.284 426.663 100.183 426.361 99.9823 426.154C99.7812 425.94 99.5069 425.834 99.1594 425.834C98.812 425.834 98.5346 425.94 98.3274 426.154C98.1262 426.361 98.0256 426.663 98.0256 427.059V429.857H96.7456V427.059C96.7456 426.663 96.645 426.361 96.4438 426.154C96.2427 425.94 95.9684 425.834 95.6209 425.834C95.2674 425.834 94.987 425.94 94.7797 426.154C94.5786 426.361 94.478 426.663 94.478 427.059V429.857H93.1979V424.791H94.478V425.404C94.6426 425.191 94.8529 425.023 95.1089 424.901C95.371 424.779 95.6575 424.718 95.9684 424.718C96.3646 424.718 96.7181 424.804 97.029 424.974C97.3399 425.139 97.5807 425.377 97.7513 425.688C97.9159 425.395 98.1537 425.16 98.4645 424.983C98.7815 424.807 99.1229 424.718 99.4886 424.718ZM104.059 425.523C104.224 425.291 104.449 425.099 104.736 424.947C105.028 424.788 105.36 424.709 105.732 424.709C106.165 424.709 106.555 424.816 106.903 425.029C107.256 425.243 107.533 425.547 107.735 425.944C107.942 426.334 108.046 426.788 108.046 427.306C108.046 427.824 107.942 428.284 107.735 428.687C107.533 429.083 107.256 429.391 106.903 429.61C106.555 429.83 106.165 429.939 105.732 429.939C105.36 429.939 105.031 429.863 104.745 429.711C104.464 429.558 104.236 429.366 104.059 429.135V432.271H102.779V424.791H104.059V425.523ZM106.738 427.306C106.738 427.001 106.674 426.739 106.546 426.52C106.424 426.294 106.259 426.123 106.052 426.008C105.851 425.892 105.632 425.834 105.394 425.834C105.162 425.834 104.943 425.895 104.736 426.017C104.534 426.133 104.37 426.303 104.242 426.529C104.12 426.754 104.059 427.019 104.059 427.324C104.059 427.629 104.12 427.894 104.242 428.12C104.37 428.345 104.534 428.519 104.736 428.641C104.943 428.757 105.162 428.815 105.394 428.815C105.632 428.815 105.851 428.754 106.052 428.632C106.259 428.51 106.424 428.336 106.546 428.111C106.674 427.885 106.738 427.617 106.738 427.306ZM108.647 427.306C108.647 426.794 108.747 426.34 108.948 425.944C109.156 425.547 109.433 425.243 109.78 425.029C110.134 424.816 110.527 424.709 110.96 424.709C111.338 424.709 111.667 424.785 111.947 424.938C112.234 425.09 112.462 425.282 112.633 425.514V424.791H113.922V429.857H112.633V429.116C112.469 429.354 112.24 429.552 111.947 429.711C111.661 429.863 111.329 429.939 110.951 429.939C110.524 429.939 110.134 429.83 109.78 429.61C109.433 429.391 109.156 429.083 108.948 428.687C108.747 428.284 108.647 427.824 108.647 427.306ZM112.633 427.324C112.633 427.013 112.572 426.748 112.45 426.529C112.328 426.303 112.164 426.133 111.956 426.017C111.749 425.895 111.527 425.834 111.289 425.834C111.051 425.834 110.832 425.892 110.631 426.008C110.43 426.123 110.265 426.294 110.137 426.52C110.015 426.739 109.954 427.001 109.954 427.306C109.954 427.611 110.015 427.879 110.137 428.111C110.265 428.336 110.43 428.51 110.631 428.632C110.838 428.754 111.057 428.815 111.289 428.815C111.527 428.815 111.749 428.757 111.956 428.641C112.164 428.519 112.328 428.348 112.45 428.129C112.572 427.903 112.633 427.635 112.633 427.324ZM116.453 425.578C116.617 425.31 116.831 425.099 117.093 424.947C117.361 424.795 117.666 424.718 118.007 424.718V426.062H117.669C117.266 426.062 116.962 426.157 116.754 426.346C116.553 426.535 116.453 426.864 116.453 427.333V429.857H115.173V424.791H116.453V425.578ZM120.36 425.843V428.293C120.36 428.464 120.399 428.589 120.478 428.668C120.564 428.741 120.704 428.778 120.899 428.778H121.493V429.857H120.689C119.61 429.857 119.07 429.333 119.07 428.284V425.843H118.467V424.791H119.07V423.539H120.36V424.791H121.493V425.843H120.36ZM123.063 424.188C122.838 424.188 122.649 424.118 122.496 423.978C122.35 423.831 122.277 423.652 122.277 423.438C122.277 423.225 122.35 423.048 122.496 422.908C122.649 422.762 122.838 422.688 123.063 422.688C123.289 422.688 123.475 422.762 123.621 422.908C123.773 423.048 123.85 423.225 123.85 423.438C123.85 423.652 123.773 423.831 123.621 423.978C123.475 424.118 123.289 424.188 123.063 424.188ZM123.694 424.791V429.857H122.414V424.791H123.694ZM126.239 423.091V429.857H124.959V423.091H126.239ZM130.356 424.718C130.74 424.718 131.082 424.804 131.381 424.974C131.679 425.139 131.911 425.386 132.075 425.715C132.246 426.038 132.331 426.428 132.331 426.885V429.857H131.051V427.059C131.051 426.657 130.951 426.349 130.75 426.136C130.548 425.916 130.274 425.806 129.927 425.806C129.573 425.806 129.293 425.916 129.086 426.136C128.884 426.349 128.784 426.657 128.784 427.059V429.857H127.504V423.091H128.784V425.422C128.948 425.203 129.168 425.032 129.442 424.91C129.716 424.782 130.021 424.718 130.356 424.718ZM133.22 427.306C133.22 426.794 133.32 426.34 133.521 425.944C133.729 425.547 134.006 425.243 134.353 425.029C134.707 424.816 135.1 424.709 135.533 424.709C135.911 424.709 136.24 424.785 136.52 424.938C136.807 425.09 137.035 425.282 137.206 425.514V424.791H138.495V429.857H137.206V429.116C137.042 429.354 136.813 429.552 136.52 429.711C136.234 429.863 135.902 429.939 135.524 429.939C135.097 429.939 134.707 429.83 134.353 429.61C134.006 429.391 133.729 429.083 133.521 428.687C133.32 428.284 133.22 427.824 133.22 427.306ZM137.206 427.324C137.206 427.013 137.145 426.748 137.023 426.529C136.901 426.303 136.737 426.133 136.53 426.017C136.322 425.895 136.1 425.834 135.862 425.834C135.624 425.834 135.405 425.892 135.204 426.008C135.003 426.123 134.838 426.294 134.71 426.52C134.588 426.739 134.527 427.001 134.527 427.306C134.527 427.611 134.588 427.879 134.71 428.111C134.838 428.336 135.003 428.51 135.204 428.632C135.411 428.754 135.63 428.815 135.862 428.815C136.1 428.815 136.322 428.757 136.53 428.641C136.737 428.519 136.901 428.348 137.023 428.129C137.145 427.903 137.206 427.635 137.206 427.324ZM141.026 425.578C141.19 425.31 141.404 425.099 141.666 424.947C141.934 424.795 142.239 424.718 142.58 424.718V426.062H142.242C141.839 426.062 141.535 426.157 141.327 426.346C141.126 426.535 141.026 426.864 141.026 427.333V429.857H139.746V424.791H141.026V425.578Z" fill="#01A5F0"/>
<path d="M62.8341 135.183C63.7901 135.183 64.6197 134.778 65.1699 134.128L64.5747 133.623C64.1598 134.11 63.5285 134.426 62.8341 134.426C61.5265 134.426 60.4984 133.326 60.4984 132C60.4984 130.665 61.5265 129.574 62.8341 129.574C63.5285 129.574 64.1598 129.89 64.5747 130.377L65.1699 129.872C64.6197 129.222 63.7901 128.817 62.8341 128.817C61.0756 128.817 59.6778 130.241 59.6778 132C59.6778 133.759 61.0756 135.183 62.8341 135.183ZM68.0245 135.183C69.224 135.183 70.234 134.309 70.234 132.974C70.234 131.639 69.224 130.792 68.0245 130.792C66.8251 130.792 65.8241 131.639 65.8241 132.974C65.8241 134.309 66.8251 135.183 68.0245 135.183ZM68.0245 134.444C67.258 134.444 66.6177 133.849 66.6177 132.974C66.6177 132.108 67.258 131.531 68.0245 131.531C68.8001 131.531 69.4494 132.108 69.4494 132.974C69.4494 133.849 68.8001 134.444 68.0245 134.444ZM76.3224 130.792C75.8986 130.792 75.2312 130.918 74.8524 131.666C74.6089 131.107 74.0769 130.792 73.4636 130.792C72.8684 130.792 72.3273 131.071 72.1109 131.522V130.882H71.3263V135.093H72.1109V132.812C72.1109 131.919 72.7061 131.549 73.3013 131.549C73.8604 131.549 74.2482 131.991 74.2482 132.703V135.093H75.0328V132.947L75.0418 132.983C74.9697 132.171 75.4206 131.54 76.1691 131.549C76.7823 131.549 77.1701 132 77.1701 132.703V135.093H77.9547V132.658C77.9547 131.477 77.3775 130.792 76.3224 130.792ZM81.5429 130.792C80.9387 130.792 80.3254 131.062 80.0459 131.549V130.882H79.2613V137.14H80.0459V134.435C80.3254 134.931 80.9206 135.183 81.5519 135.183C82.7062 135.183 83.6531 134.327 83.6531 132.992C83.6531 131.666 82.6972 130.792 81.5429 130.792ZM81.4707 134.444C80.7854 134.444 80.0459 133.912 80.0459 133.001C80.0459 132.099 80.7222 131.531 81.4707 131.531C82.2463 131.531 82.8595 132.162 82.8595 133.001C82.8595 133.849 82.2463 134.444 81.4707 134.444ZM86.7229 130.792C86.1638 130.792 85.758 131.098 85.5415 131.838V130.882H84.7479V135.093H85.5415V133.551C85.5415 132.442 85.8752 131.549 86.7139 131.549C86.8762 131.549 87.1017 131.585 87.3271 131.693L87.4534 130.954C87.3271 130.873 87.0205 130.792 86.7229 130.792ZM90.024 135.183C91.2234 135.183 92.2335 134.309 92.2335 132.974C92.2335 131.639 91.2234 130.792 90.024 130.792C88.8246 130.792 87.8236 131.639 87.8236 132.974C87.8236 134.309 88.8246 135.183 90.024 135.183ZM90.024 134.444C89.2575 134.444 88.6172 133.849 88.6172 132.974C88.6172 132.108 89.2575 131.531 90.024 131.531C90.7996 131.531 91.4489 132.108 91.4489 132.974C91.4489 133.849 90.7996 134.444 90.024 134.444ZM96.0969 130.882L94.8073 134.092L93.5087 130.882H92.67L94.4195 135.093H95.1861L96.9446 130.882H96.0969ZM100.986 130.882V131.54C100.707 131.044 100.112 130.792 99.4804 130.792C98.3261 130.792 97.3792 131.648 97.3792 132.983C97.3792 134.309 98.3351 135.183 99.4895 135.183C100.094 135.183 100.707 134.913 100.986 134.426V135.093H101.771V130.882H100.986ZM99.5526 134.444C98.786 134.444 98.1728 133.813 98.1728 132.974C98.1728 132.126 98.786 131.531 99.5526 131.531C100.247 131.531 100.986 132.063 100.986 132.974C100.986 133.876 100.31 134.444 99.5526 134.444ZM105.328 130.792C104.868 130.792 104.183 131.008 103.93 131.522V130.882H103.145V135.093H103.93V132.812C103.93 131.901 104.633 131.567 105.22 131.567C105.806 131.567 106.239 132 106.239 132.703V135.093H107.023V132.658C107.032 131.477 106.374 130.792 105.328 130.792ZM110.3 130.882H109.389V129.286H108.604V130.882H107.847V131.558H108.604V135.093H109.389V131.558H110.3V130.882ZM115.057 132.974C115.057 131.639 114.164 130.792 112.965 130.792C111.766 130.792 110.801 131.639 110.801 132.974C110.801 134.309 111.766 135.183 112.965 135.183C113.777 135.183 114.534 134.805 114.904 134.074L114.218 133.804C113.984 134.228 113.506 134.444 112.992 134.444C112.271 134.444 111.729 134.074 111.612 133.326H115.039C115.048 133.208 115.057 133.091 115.057 132.974ZM111.621 132.649C111.748 131.892 112.253 131.531 112.965 131.531C113.659 131.531 114.173 131.928 114.273 132.649H111.621ZM118.318 133.371H121.447V132.613H118.318V133.371ZM126.513 133.984L127.901 132.388C128.28 131.964 128.551 131.459 128.551 130.891C128.551 129.818 127.784 129.105 126.603 129.105C125.421 129.105 124.736 129.827 124.592 130.882L125.665 131.062C125.737 130.548 126.035 130.205 126.558 130.205C127.018 130.205 127.342 130.485 127.342 130.882C127.342 131.08 127.18 131.387 126.936 131.684L124.628 134.453V135.093H128.605V133.984H126.513ZM131.744 135.174C133.457 135.174 133.926 133.831 133.926 132.153C133.926 130.449 133.457 129.105 131.744 129.105C130.021 129.105 129.543 130.449 129.543 132.153C129.543 133.831 130.021 135.174 131.744 135.174ZM131.744 134.074C130.977 134.074 130.743 133.226 130.743 132.153C130.743 131.062 130.977 130.205 131.744 130.205C132.501 130.205 132.727 131.062 132.727 132.153C132.727 133.226 132.501 134.074 131.744 134.074ZM136.693 133.984L138.082 132.388C138.461 131.964 138.731 131.459 138.731 130.891C138.731 129.818 137.965 129.105 136.783 129.105C135.602 129.105 134.917 129.827 134.772 130.882L135.846 131.062C135.918 130.548 136.215 130.205 136.738 130.205C137.198 130.205 137.523 130.485 137.523 130.882C137.523 131.08 137.361 131.387 137.117 131.684L134.808 134.453V135.093H138.785V133.984H136.693ZM141.87 129.105C140.554 129.105 139.688 129.962 139.688 131.089C139.688 132.117 140.481 132.992 141.681 132.992C142.249 132.992 142.673 132.785 142.961 132.496C142.916 133.416 142.393 134.074 141.654 134.074C141.266 134.074 140.905 133.876 140.716 133.479L139.76 134.002C140.121 134.805 140.887 135.174 141.663 135.174C143.322 135.174 144.161 133.686 144.161 131.937C144.161 130.26 143.25 129.105 141.87 129.105ZM141.843 131.991C141.284 131.982 140.887 131.612 140.887 131.098C140.887 130.575 141.293 130.205 141.879 130.205C142.456 130.214 142.862 130.593 142.862 131.116C142.853 131.63 142.429 131.991 141.843 131.991ZM149.642 132.911H148.74V129.186H148.037L144.691 133.614V133.966H147.541V135.093H148.74V133.966H149.642V132.911ZM146.377 132.911L147.541 131.351V132.911H146.377ZM152.606 129.105C151.289 129.105 150.423 129.962 150.423 131.089C150.423 132.117 151.217 132.992 152.416 132.992C152.985 132.992 153.408 132.785 153.697 132.496C153.652 133.416 153.129 134.074 152.389 134.074C152.002 134.074 151.641 133.876 151.451 133.479L150.496 134.002C150.856 134.805 151.623 135.174 152.398 135.174C154.058 135.174 154.896 133.686 154.896 131.937C154.896 130.26 153.986 129.105 152.606 129.105ZM152.579 131.991C152.02 131.982 151.623 131.612 151.623 131.098C151.623 130.575 152.029 130.205 152.615 130.205C153.192 130.214 153.598 130.593 153.598 131.116C153.589 131.63 153.165 131.991 152.579 131.991ZM158.024 129.105L155.571 130.124V131.233L156.932 130.71V135.093H158.123V129.105H158.024ZM161.546 135.174C163.259 135.174 163.728 133.831 163.728 132.153C163.728 130.449 163.259 129.105 161.546 129.105C159.824 129.105 159.346 130.449 159.346 132.153C159.346 133.831 159.824 135.174 161.546 135.174ZM161.546 134.074C160.779 134.074 160.545 133.226 160.545 132.153C160.545 131.062 160.779 130.205 161.546 130.205C162.304 130.205 162.529 131.062 162.529 132.153C162.529 133.226 162.304 134.074 161.546 134.074Z" fill="#0073CE"/>
<path opacity="0.3" d="M37.6953 149.136H185.368" stroke="#855B35" stroke-width="0.751517"/>
<path opacity="0.3" d="M37.6953 251.342H185.368" stroke="#855B35" stroke-width="0.751517"/>
<path d="M79.1493 176.051H81.1258C82.6965 176.051 83.7862 175.059 83.7862 173.548C83.7862 172.038 82.6965 171.038 81.1258 171.038H79.1493V176.051ZM80.2165 175.111V171.978H81.1258C82.1554 171.978 82.6965 172.661 82.6965 173.548C82.6965 174.397 82.1178 175.111 81.1258 175.111H80.2165ZM84.5435 176.051H88.0907V175.126H85.6107V173.962H88.0381V173.045H85.6107V171.955H88.0907V171.038H84.5435V176.051ZM90.6072 173.548C90.6072 175.126 91.8097 176.148 93.2751 176.148C94.1845 176.148 94.8984 175.773 95.4094 175.202V173.285H93.0196V174.202H94.3573V174.811C94.1394 175.006 93.7336 175.194 93.2751 175.194C92.3658 175.194 91.7045 174.495 91.7045 173.548C91.7045 172.601 92.3658 171.902 93.2751 171.902C93.8012 171.902 94.2296 172.18 94.4625 172.534L95.3493 172.053C94.966 171.459 94.3122 170.955 93.2751 170.955C91.8097 170.955 90.6072 171.963 90.6072 173.548ZM96.2566 176.051H97.3238V171.038H96.2566V176.051ZM98.3189 176.051H101.505V175.111H99.386V171.038H98.3189V176.051ZM102.253 176.051H104.973C105.928 176.051 106.431 175.45 106.431 174.698C106.431 174.067 106.003 173.548 105.469 173.466C105.943 173.368 106.333 172.947 106.333 172.316C106.333 171.647 105.845 171.038 104.89 171.038H102.253V176.051ZM103.32 173.052V171.948H104.657C105.018 171.948 105.244 172.188 105.244 172.496C105.244 172.819 105.018 173.052 104.657 173.052H103.32ZM103.32 175.141V173.962H104.695C105.116 173.962 105.341 174.232 105.341 174.548C105.341 174.908 105.101 175.141 104.695 175.141H103.32ZM107.236 176.051H110.783V175.126H108.303V173.962H110.73V173.045H108.303V171.955H110.783V171.038H107.236V176.051ZM114.45 176.051H115.675L114.548 174.142C115.089 174.014 115.645 173.541 115.645 172.654C115.645 171.722 115.007 171.038 113.962 171.038H111.617V176.051H112.684V174.255H113.466L114.45 176.051ZM114.556 172.646C114.556 173.067 114.232 173.338 113.804 173.338H112.684V171.955H113.804C114.232 171.955 114.556 172.226 114.556 172.646ZM117.53 176.051H118.605V171.978H120.063V171.038H116.065V171.978H117.53V176.051ZM120.323 173.548C120.323 175.059 121.428 176.141 122.938 176.141C124.456 176.141 125.561 175.059 125.561 173.548C125.561 172.038 124.456 170.955 122.938 170.955C121.428 170.955 120.323 172.038 120.323 173.548ZM124.464 173.548C124.464 174.48 123.863 175.194 122.938 175.194C122.014 175.194 121.42 174.48 121.42 173.548C121.42 172.609 122.014 171.902 122.938 171.902C123.863 171.902 124.464 172.609 124.464 173.548ZM128.233 176.051H129.3V174.255H130.577C131.66 174.255 132.261 173.526 132.261 172.654C132.261 171.775 131.667 171.038 130.577 171.038H128.233V176.051ZM131.171 172.646C131.171 173.067 130.856 173.338 130.435 173.338H129.3V171.955H130.435C130.856 171.955 131.171 172.233 131.171 172.646ZM135.756 176.051H136.981L135.853 174.142C136.394 174.014 136.951 173.541 136.951 172.654C136.951 171.722 136.312 171.038 135.267 171.038H132.922V176.051H133.99V174.255H134.771L135.756 176.051ZM135.861 172.646C135.861 173.067 135.538 173.338 135.109 173.338H133.99V171.955H135.109C135.538 171.955 135.861 172.226 135.861 172.646ZM141.261 176.051H142.426L140.495 171.038H139.157L137.218 176.051H138.39L138.706 175.187H140.945L141.261 176.051ZM139.826 171.963L140.652 174.262H138.991L139.826 171.963ZM142.889 176.051H144.865C146.436 176.051 147.526 175.059 147.526 173.548C147.526 172.038 146.436 171.038 144.865 171.038H142.889V176.051ZM143.956 175.111V171.978H144.865C145.895 171.978 146.436 172.661 146.436 173.548C146.436 174.397 145.857 175.111 144.865 175.111H143.956ZM148.042 173.548C148.042 175.059 149.147 176.141 150.658 176.141C152.176 176.141 153.281 175.059 153.281 173.548C153.281 172.038 152.176 170.955 150.658 170.955C149.147 170.955 148.042 172.038 148.042 173.548ZM152.183 173.548C152.183 174.48 151.582 175.194 150.658 175.194C149.733 175.194 149.14 174.48 149.14 173.548C149.14 172.609 149.733 171.902 150.658 171.902C151.582 171.902 152.183 172.609 152.183 173.548Z" fill="#855B35"/>
<path d="M79.1493 278.257H80.2165V276.461H81.4941C82.5762 276.461 83.1775 275.732 83.1775 274.86C83.1775 273.981 82.5838 273.244 81.4941 273.244H79.1493V278.257ZM82.0878 274.852C82.0878 275.273 81.7721 275.544 81.3513 275.544H80.2165V274.161H81.3513C81.7721 274.161 82.0878 274.439 82.0878 274.852ZM86.7908 278.257H87.9556L86.0242 273.244H84.6865L82.7476 278.257H83.92L84.2356 277.393H86.4751L86.7908 278.257ZM85.3554 274.169L86.182 276.468H84.5212L85.3554 274.169ZM91.2517 278.257H92.4767L91.3494 276.348C91.8905 276.22 92.4466 275.747 92.4466 274.86C92.4466 273.928 91.8079 273.244 90.7632 273.244H88.4185V278.257H89.4857V276.461H90.2672L91.2517 278.257ZM91.3569 274.852C91.3569 275.273 91.0338 275.544 90.6054 275.544H89.4857V274.161H90.6054C91.0338 274.161 91.3569 274.432 91.3569 274.852ZM96.7572 278.257H97.922L95.9906 273.244H94.6529L92.714 278.257H93.8864L94.202 277.393H96.4415L96.7572 278.257ZM95.3218 274.169L96.1485 276.468H94.4876L95.3218 274.169ZM102.698 278.347C103.84 278.347 104.471 277.738 104.832 277.115L103.915 276.671C103.705 277.084 103.254 277.4 102.698 277.4C101.826 277.4 101.164 276.701 101.164 275.754C101.164 274.807 101.826 274.108 102.698 274.108C103.254 274.108 103.705 274.432 103.915 274.837L104.832 274.387C104.479 273.763 103.84 273.162 102.698 273.162C101.232 273.162 100.067 274.214 100.067 275.754C100.067 277.295 101.232 278.347 102.698 278.347ZM108.925 278.257H110.09L108.159 273.244H106.821L104.882 278.257H106.054L106.37 277.393H108.61L108.925 278.257ZM107.49 274.169L108.317 276.468H106.656L107.49 274.169ZM113.386 278.257H114.611L113.484 276.348C114.025 276.22 114.581 275.747 114.581 274.86C114.581 273.928 113.942 273.244 112.898 273.244H110.553V278.257H111.62V276.461H112.402L113.386 278.257ZM113.491 274.852C113.491 275.273 113.168 275.544 112.74 275.544H111.62V274.161H112.74C113.168 274.161 113.491 274.432 113.491 274.852ZM115.142 275.754C115.142 277.265 116.246 278.347 117.757 278.347C119.275 278.347 120.38 277.265 120.38 275.754C120.38 274.244 119.275 273.162 117.757 273.162C116.246 273.162 115.142 274.244 115.142 275.754ZM119.282 275.754C119.282 276.686 118.681 277.4 117.757 277.4C116.833 277.4 116.239 276.686 116.239 275.754C116.239 274.815 116.833 274.108 117.757 274.108C118.681 274.108 119.282 274.815 119.282 275.754ZM121.129 278.257H124.315V277.317H122.196V273.244H121.129V278.257ZM130.495 278.257H131.66L129.728 273.244H128.39L126.452 278.257H127.624L127.94 277.393H130.179L130.495 278.257ZM129.059 274.169L129.886 276.468H128.225L129.059 274.169ZM134.956 278.257H136.181L135.053 276.348C135.594 276.22 136.151 275.747 136.151 274.86C136.151 273.928 135.512 273.244 134.467 273.244H132.122V278.257H133.19V276.461H133.971L134.956 278.257ZM135.061 274.852C135.061 275.273 134.738 275.544 134.309 275.544H133.19V274.161H134.309C134.738 274.161 135.061 274.432 135.061 274.852ZM140.461 278.257H141.626L139.695 273.244H138.357L136.418 278.257H137.59L137.906 277.393H140.145L140.461 278.257ZM139.026 274.169L139.852 276.468H138.192L139.026 274.169ZM144.394 272.823L145.612 271.741H144.733L143.726 272.823H144.394ZM141.839 276.258C141.839 277.49 142.553 278.347 144.086 278.347C145.604 278.347 146.318 277.498 146.318 276.25V273.244H145.236V276.22C145.236 276.919 144.853 277.4 144.086 277.4C143.305 277.4 142.921 276.919 142.921 276.22V273.244H141.839V276.258ZM146.658 277.859C147.019 278.212 147.5 278.347 148.003 278.347C149.033 278.347 149.769 277.798 149.769 276.611V273.244H148.702V276.596C148.702 277.084 148.394 277.4 147.92 277.4C147.575 277.4 147.319 277.227 147.124 277.039L146.658 277.859ZM150.523 275.754C150.523 277.265 151.628 278.347 153.138 278.347C154.656 278.347 155.761 277.265 155.761 275.754C155.761 274.244 154.656 273.162 153.138 273.162C151.628 273.162 150.523 274.244 150.523 275.754ZM154.664 275.754C154.664 276.686 154.063 277.4 153.138 277.4C152.214 277.4 151.62 276.686 151.62 275.754C151.62 274.815 152.214 274.108 153.138 274.108C154.063 274.108 154.664 274.815 154.664 275.754Z" fill="#855B35"/>
<path d="M39.777 202.857H40.5511L42.5727 197.844H41.8587L40.1678 202.173L38.4769 197.844H37.7629L39.777 202.857ZM44.998 202.857H45.5616V200.362C45.5616 199.483 44.9228 199.137 44.1563 199.137C43.5626 199.137 43.0967 199.332 42.7059 199.738L42.9689 200.129C43.2921 199.783 43.6453 199.625 44.0811 199.625C44.6072 199.625 44.998 199.903 44.998 200.392V201.046C44.7049 200.708 44.2916 200.55 43.7956 200.55C43.1793 200.55 42.5255 200.933 42.5255 201.745C42.5255 202.534 43.1793 202.947 43.7956 202.947C44.2841 202.947 44.6974 202.774 44.998 202.444V202.857ZM44.998 202.09C44.7801 202.391 44.3968 202.541 43.9985 202.541C43.4724 202.541 43.1042 202.211 43.1042 201.752C43.1042 201.286 43.4724 200.956 43.9985 200.956C44.3968 200.956 44.7801 201.106 44.998 201.407V202.09ZM46.6915 202.857H47.2551V197.844H46.6915V202.857ZM49.9652 202.947C51.0699 202.947 51.7613 202.09 51.7613 201.038C51.7613 199.986 51.0699 199.137 49.9652 199.137C48.8604 199.137 48.169 199.986 48.169 201.038C48.169 202.09 48.8604 202.947 49.9652 202.947ZM49.9652 202.444C49.1911 202.444 48.7552 201.782 48.7552 201.038C48.7552 200.302 49.1911 199.64 49.9652 199.64C50.7392 199.64 51.1676 200.302 51.1676 201.038C51.1676 201.782 50.7392 202.444 49.9652 202.444ZM52.6801 202.857H53.2438V200.287C53.4091 199.994 53.8826 199.708 54.2283 199.708C54.3184 199.708 54.3861 199.716 54.4537 199.731V199.152C53.9577 199.152 53.5369 199.43 53.2438 199.813V199.227H52.6801V202.857ZM38.2815 218.857H40.5661C41.483 218.857 42.0165 218.308 42.0165 217.504C42.0165 216.903 41.5731 216.354 41.0396 216.272C41.498 216.174 41.9188 215.753 41.9188 215.122C41.9188 214.37 41.3853 213.844 40.5135 213.844H38.2815V218.857ZM38.9053 216.016V214.4H40.4083C40.9719 214.4 41.2725 214.761 41.2725 215.212C41.2725 215.671 40.9719 216.016 40.4083 216.016H38.9053ZM38.9053 218.301V216.572H40.4383C41.0546 216.572 41.3702 216.978 41.3702 217.437C41.3702 217.97 41.0245 218.301 40.4383 218.301H38.9053ZM45.2549 218.857H45.8185V216.362C45.8185 215.483 45.1797 215.137 44.4132 215.137C43.8195 215.137 43.3535 215.332 42.9627 215.738L43.2258 216.129C43.5489 215.783 43.9021 215.625 44.338 215.625C44.8641 215.625 45.2549 215.903 45.2549 216.392V217.046C44.9618 216.708 44.5484 216.55 44.0524 216.55C43.4362 216.55 42.7824 216.933 42.7824 217.745C42.7824 218.534 43.4362 218.947 44.0524 218.947C44.5409 218.947 44.9543 218.774 45.2549 218.444V218.857ZM45.2549 218.09C45.0369 218.391 44.6537 218.541 44.2553 218.541C43.7293 218.541 43.361 218.211 43.361 217.752C43.361 217.286 43.7293 216.956 44.2553 216.956C44.6537 216.956 45.0369 217.106 45.2549 217.407V218.09ZM49.3983 218.857H49.9619V216.309C49.9619 215.52 49.5636 215.137 48.8046 215.137C48.2635 215.137 47.7675 215.453 47.512 215.753V215.227H46.9484V218.857H47.512V216.204C47.7224 215.911 48.1433 215.64 48.5867 215.64C49.0752 215.64 49.3983 215.843 49.3983 216.482V218.857ZM50.8771 217.038C50.8771 218.12 51.6061 218.947 52.6883 218.947C53.3496 218.947 53.7404 218.677 54.0185 218.316L53.6427 217.97C53.4022 218.293 53.0941 218.444 52.7184 218.444C51.9443 218.444 51.4633 217.842 51.4633 217.038C51.4633 216.234 51.9443 215.64 52.7184 215.64C53.0941 215.64 53.4022 215.783 53.6427 216.114L54.0185 215.768C53.7404 215.407 53.3496 215.137 52.6883 215.137C51.6061 215.137 50.8771 215.964 50.8771 217.038ZM56.3942 218.947C57.4989 218.947 58.1903 218.09 58.1903 217.038C58.1903 215.986 57.4989 215.137 56.3942 215.137C55.2894 215.137 54.598 215.986 54.598 217.038C54.598 218.09 55.2894 218.947 56.3942 218.947ZM56.3942 218.444C55.6201 218.444 55.1842 217.782 55.1842 217.038C55.1842 216.302 55.6201 215.64 56.3942 215.64C57.1682 215.64 57.5966 216.302 57.5966 217.038C57.5966 217.782 57.1682 218.444 56.3942 218.444ZM58.9964 215.588C58.9964 215.813 59.1843 216.001 59.4097 216.001C59.6352 216.001 59.8231 215.813 59.8231 215.588C59.8231 215.362 59.6352 215.175 59.4097 215.175C59.1843 215.175 58.9964 215.362 58.9964 215.588ZM58.9964 218.519C58.9964 218.744 59.1843 218.932 59.4097 218.932C59.6352 218.932 59.8231 218.744 59.8231 218.519C59.8231 218.293 59.6352 218.105 59.4097 218.105C59.1843 218.105 58.9964 218.293 58.9964 218.519ZM41.8813 234.857H42.5727L40.5511 229.844H39.777L37.7629 234.857H38.4543L38.8977 233.745H41.4379L41.8813 234.857ZM40.1678 230.4L41.25 233.189H39.0781L40.1678 230.4ZM43.1979 235.789C43.6263 236.21 44.0472 236.33 44.6634 236.33C45.5502 236.33 46.3919 235.954 46.3919 234.752V231.227H45.8282V231.776C45.5352 231.377 45.0993 231.137 44.6108 231.137C43.6564 231.137 42.995 231.858 42.995 233.023C42.995 234.196 43.6639 234.902 44.6108 234.902C45.1218 234.902 45.5652 234.624 45.8282 234.256V234.774C45.8282 235.571 45.2646 235.864 44.6634 235.864C44.1449 235.864 43.7841 235.729 43.4835 235.368L43.1979 235.789ZM45.8282 233.812C45.6329 234.128 45.197 234.406 44.7461 234.406C44.0171 234.406 43.5812 233.82 43.5812 233.023C43.5812 232.219 44.0171 231.64 44.7461 231.64C45.197 231.64 45.6329 231.911 45.8282 232.227V233.812ZM49.7152 230.679H50.0985L49.362 229.596H48.8209L48.107 230.679H48.4903L49.0915 229.882L49.7152 230.679ZM47.3104 233.038C47.3104 234.173 48.0844 234.947 49.1591 234.947C49.7528 234.947 50.2413 234.752 50.602 234.391L50.3315 234.023C50.0459 234.316 49.6251 234.481 49.2117 234.481C48.4301 234.481 47.9492 233.91 47.9041 233.226H50.8425V233.083C50.8425 231.994 50.1962 231.137 49.099 231.137C48.0619 231.137 47.3104 231.986 47.3104 233.038ZM49.0915 231.603C49.9181 231.603 50.2789 232.272 50.2864 232.813H47.9041C47.9341 232.257 48.3174 231.603 49.0915 231.603ZM54.2054 234.857H54.769V232.309C54.769 231.52 54.3707 231.137 53.6117 231.137C53.0706 231.137 52.5746 231.453 52.3191 231.753V231.227H51.7554V234.857H52.3191V232.204C52.5295 231.911 52.9503 231.64 53.3937 231.64C53.8822 231.64 54.2054 231.843 54.2054 232.482V234.857ZM55.6842 233.038C55.6842 234.12 56.4132 234.947 57.4954 234.947C58.1567 234.947 58.5475 234.677 58.8256 234.316L58.4498 233.97C58.2093 234.293 57.9012 234.444 57.5254 234.444C56.7514 234.444 56.2704 233.842 56.2704 233.038C56.2704 232.234 56.7514 231.64 57.5254 231.64C57.9012 231.64 58.2093 231.783 58.4498 232.114L58.8256 231.768C58.5475 231.407 58.1567 231.137 57.4954 231.137C56.4132 231.137 55.6842 231.964 55.6842 233.038ZM59.8936 230.618C60.104 230.618 60.2769 230.446 60.2769 230.235C60.2769 230.025 60.104 229.859 59.8936 229.859C59.6907 229.859 59.5178 230.025 59.5178 230.235C59.5178 230.446 59.6907 230.618 59.8936 230.618ZM59.6155 234.857H60.1792V231.227H59.6155V234.857ZM63.5731 234.857H64.1367V232.362C64.1367 231.483 63.4979 231.137 62.7314 231.137C62.1377 231.137 61.6717 231.332 61.281 231.738L61.544 232.129C61.8671 231.783 62.2204 231.625 62.6562 231.625C63.1823 231.625 63.5731 231.903 63.5731 232.392V233.046C63.28 232.708 62.8667 232.55 62.3707 232.55C61.7544 232.55 61.1006 232.933 61.1006 233.745C61.1006 234.534 61.7544 234.947 62.3707 234.947C62.8591 234.947 63.2725 234.774 63.5731 234.444V234.857ZM63.5731 234.09C63.3551 234.391 62.9719 234.541 62.5736 234.541C62.0475 234.541 61.6793 234.211 61.6793 233.752C61.6793 233.286 62.0475 232.956 62.5736 232.956C62.9719 232.956 63.3551 233.106 63.5731 233.407V234.09ZM65.1539 231.588C65.1539 231.813 65.3417 232.001 65.5672 232.001C65.7926 232.001 65.9805 231.813 65.9805 231.588C65.9805 231.362 65.7926 231.175 65.5672 231.175C65.3417 231.175 65.1539 231.362 65.1539 231.588ZM65.1539 234.519C65.1539 234.744 65.3417 234.932 65.5672 234.932C65.7926 234.932 65.9805 234.744 65.9805 234.519C65.9805 234.293 65.7926 234.105 65.5672 234.105C65.3417 234.105 65.1539 234.293 65.1539 234.519Z" fill="#855B35"/>
<path d="M41.0097 304.026C41.9191 304.026 42.5203 303.605 42.9411 303.034L42.4075 302.741C42.122 303.169 41.6034 303.47 41.0097 303.47C39.9351 303.47 39.1009 302.62 39.1009 301.433C39.1009 300.238 39.9351 299.396 41.0097 299.396C41.6034 299.396 42.122 299.705 42.4075 300.125L42.9336 299.832C42.5353 299.269 41.9191 298.84 41.0097 298.84C39.5894 298.84 38.4546 299.892 38.4546 301.433C38.4546 302.974 39.5894 304.026 41.0097 304.026ZM43.7361 303.936H44.3598V301.944H45.7501C46.7421 301.944 47.3208 301.253 47.3208 300.433C47.3208 299.614 46.7572 298.923 45.7501 298.923H43.7361V303.936ZM46.6745 300.433C46.6745 300.997 46.2687 301.388 45.675 301.388H44.3598V299.479H45.675C46.2687 299.479 46.6745 299.87 46.6745 300.433ZM48.1468 303.936H48.7706V301.651H51.3784V301.095H48.7706V299.479H51.431V298.923H48.1468V303.936ZM52.1434 300.666C52.1434 300.892 52.3313 301.08 52.5568 301.08C52.7822 301.08 52.9701 300.892 52.9701 300.666C52.9701 300.441 52.7822 300.253 52.5568 300.253C52.3313 300.253 52.1434 300.441 52.1434 300.666ZM52.1434 303.597C52.1434 303.823 52.3313 304.011 52.5568 304.011C52.7822 304.011 52.9701 303.823 52.9701 303.597C52.9701 303.372 52.7822 303.184 52.5568 303.184C52.3313 303.184 52.1434 303.372 52.1434 303.597ZM38.6575 319.936H40.9421C41.8589 319.936 42.3925 319.387 42.3925 318.583C42.3925 317.982 41.9491 317.433 41.4155 317.35C41.874 317.253 42.2948 316.832 42.2948 316.201C42.2948 315.449 41.7612 314.923 40.8895 314.923H38.6575V319.936ZM39.2812 317.095V315.479H40.7843C41.3479 315.479 41.6485 315.84 41.6485 316.291C41.6485 316.749 41.3479 317.095 40.7843 317.095H39.2812ZM39.2812 319.379V317.651H40.8143C41.4306 317.651 41.7462 318.057 41.7462 318.515C41.7462 319.049 41.4005 319.379 40.8143 319.379H39.2812ZM45.6308 319.936H46.1945V317.441C46.1945 316.561 45.5557 316.216 44.7891 316.216C44.1954 316.216 43.7295 316.411 43.3387 316.817L43.6017 317.208C43.9249 316.862 44.2781 316.704 44.714 316.704C45.2401 316.704 45.6308 316.982 45.6308 317.471V318.124C45.3378 317.786 44.9244 317.628 44.4284 317.628C43.8122 317.628 43.1584 318.012 43.1584 318.823C43.1584 319.612 43.8122 320.026 44.4284 320.026C44.9169 320.026 45.3302 319.853 45.6308 319.522V319.936ZM45.6308 319.169C45.4129 319.47 45.0296 319.62 44.6313 319.62C44.1053 319.62 43.737 319.289 43.737 318.831C43.737 318.365 44.1053 318.034 44.6313 318.034C45.0296 318.034 45.4129 318.185 45.6308 318.485V319.169ZM49.7743 319.936H50.3379V317.388C50.3379 316.599 49.9396 316.216 49.1806 316.216C48.6395 316.216 48.1435 316.531 47.888 316.832V316.306H47.3243V319.936H47.888V317.283C48.0984 316.99 48.5192 316.719 48.9626 316.719C49.4511 316.719 49.7743 316.922 49.7743 317.561V319.936ZM51.2531 318.117C51.2531 319.199 51.9821 320.026 53.0643 320.026C53.7256 320.026 54.1164 319.755 54.3945 319.394L54.0187 319.049C53.7782 319.372 53.4701 319.522 53.0943 319.522C52.3203 319.522 51.8393 318.921 51.8393 318.117C51.8393 317.313 52.3203 316.719 53.0943 316.719C53.4701 316.719 53.7782 316.862 54.0187 317.193L54.3945 316.847C54.1164 316.486 53.7256 316.216 53.0643 316.216C51.9821 316.216 51.2531 317.042 51.2531 318.117ZM56.7701 320.026C57.8749 320.026 58.5663 319.169 58.5663 318.117C58.5663 317.065 57.8749 316.216 56.7701 316.216C55.6654 316.216 54.974 317.065 54.974 318.117C54.974 319.169 55.6654 320.026 56.7701 320.026ZM56.7701 319.522C55.9961 319.522 55.5602 318.861 55.5602 318.117C55.5602 317.38 55.9961 316.719 56.7701 316.719C57.5442 316.719 57.9726 317.38 57.9726 318.117C57.9726 318.861 57.5442 319.522 56.7701 319.522ZM59.3724 316.666C59.3724 316.892 59.5603 317.08 59.7857 317.08C60.0112 317.08 60.199 316.892 60.199 316.666C60.199 316.441 60.0112 316.253 59.7857 316.253C59.5603 316.253 59.3724 316.441 59.3724 316.666ZM59.3724 319.597C59.3724 319.823 59.5603 320.011 59.7857 320.011C60.0112 320.011 60.199 319.823 60.199 319.597C60.199 319.372 60.0112 319.184 59.7857 319.184C59.5603 319.184 59.3724 319.372 59.3724 319.597ZM42.2572 335.936H42.9486L40.9271 330.923H40.153L38.1389 335.936H38.8303L39.2737 334.823H41.8138L42.2572 335.936ZM40.5438 331.479L41.626 334.267H39.4541L40.5438 331.479ZM43.5739 336.867C44.0023 337.288 44.4231 337.409 45.0394 337.409C45.9262 337.409 46.7679 337.033 46.7679 335.83V332.306H46.2042V332.854C45.9111 332.456 45.4753 332.216 44.9868 332.216C44.0323 332.216 43.371 332.937 43.371 334.102C43.371 335.274 44.0399 335.981 44.9868 335.981C45.4978 335.981 45.9412 335.703 46.2042 335.334V335.853C46.2042 336.649 45.6406 336.943 45.0394 336.943C44.5208 336.943 44.1601 336.807 43.8595 336.447L43.5739 336.867ZM46.2042 334.891C46.0088 335.207 45.573 335.485 45.122 335.485C44.3931 335.485 43.9572 334.898 43.9572 334.102C43.9572 333.298 44.3931 332.719 45.122 332.719C45.573 332.719 46.0088 332.99 46.2042 333.305V334.891ZM50.0912 331.757H50.4745L49.738 330.675H49.1969L48.483 331.757H48.8662L49.4675 330.961L50.0912 331.757ZM47.6864 334.117C47.6864 335.252 48.4604 336.026 49.5351 336.026C50.1288 336.026 50.6173 335.83 50.978 335.47L50.7075 335.101C50.4219 335.394 50.001 335.56 49.5877 335.56C48.8061 335.56 48.3251 334.989 48.2801 334.305H51.2185V334.162C51.2185 333.072 50.5722 332.216 49.475 332.216C48.4379 332.216 47.6864 333.065 47.6864 334.117ZM49.4675 332.681C50.2941 332.681 50.6548 333.35 50.6624 333.891H48.2801C48.3101 333.335 48.6934 332.681 49.4675 332.681ZM54.5813 335.936H55.145V333.388C55.145 332.599 54.7467 332.216 53.9876 332.216C53.4466 332.216 52.9506 332.531 52.695 332.832V332.306H52.1314V335.936H52.695V333.283C52.9055 332.99 53.3263 332.719 53.7697 332.719C54.2582 332.719 54.5813 332.922 54.5813 333.561V335.936ZM56.0602 334.117C56.0602 335.199 56.7892 336.026 57.8713 336.026C58.5327 336.026 58.9235 335.755 59.2015 335.394L58.8258 335.049C58.5853 335.372 58.2772 335.522 57.9014 335.522C57.1273 335.522 56.6464 334.921 56.6464 334.117C56.6464 333.313 57.1273 332.719 57.9014 332.719C58.2772 332.719 58.5853 332.862 58.8258 333.193L59.2015 332.847C58.9235 332.486 58.5327 332.216 57.8713 332.216C56.7892 332.216 56.0602 333.042 56.0602 334.117ZM60.2696 331.697C60.48 331.697 60.6528 331.524 60.6528 331.314C60.6528 331.103 60.48 330.938 60.2696 330.938C60.0667 330.938 59.8938 331.103 59.8938 331.314C59.8938 331.524 60.0667 331.697 60.2696 331.697ZM59.9915 335.936H60.5551V332.306H59.9915V335.936ZM63.9491 335.936H64.5127V333.441C64.5127 332.561 63.8739 332.216 63.1074 332.216C62.5137 332.216 62.0477 332.411 61.6569 332.817L61.92 333.208C62.2431 332.862 62.5963 332.704 63.0322 332.704C63.5583 332.704 63.9491 332.982 63.9491 333.471V334.124C63.656 333.786 63.2426 333.628 62.7466 333.628C62.1304 333.628 61.4766 334.012 61.4766 334.823C61.4766 335.612 62.1304 336.026 62.7466 336.026C63.2351 336.026 63.6485 335.853 63.9491 335.522V335.936ZM63.9491 335.169C63.7311 335.47 63.3478 335.62 62.9495 335.62C62.4235 335.62 62.0552 335.289 62.0552 334.831C62.0552 334.365 62.4235 334.034 62.9495 334.034C63.3478 334.034 63.7311 334.185 63.9491 334.485V335.169ZM65.5298 332.666C65.5298 332.892 65.7177 333.08 65.9432 333.08C66.1686 333.08 66.3565 332.892 66.3565 332.666C66.3565 332.441 66.1686 332.253 65.9432 332.253C65.7177 332.253 65.5298 332.441 65.5298 332.666ZM65.5298 335.597C65.5298 335.823 65.7177 336.011 65.9432 336.011C66.1686 336.011 66.3565 335.823 66.3565 335.597C66.3565 335.372 66.1686 335.184 65.9432 335.184C65.7177 335.184 65.5298 335.372 65.5298 335.597Z" fill="#855B35"/>
<path d="M82.0953 202.857H82.967L81.6819 200.85C82.3207 200.768 82.9294 200.287 82.9294 199.385C82.9294 198.461 82.2756 197.844 81.3212 197.844H79.2094V202.857H79.961V200.926H80.9004L82.0953 202.857ZM82.1554 199.385C82.1554 199.911 81.7646 200.264 81.2235 200.264H79.961V198.506H81.2235C81.7646 198.506 82.1554 198.859 82.1554 199.385ZM87.4623 201.437C87.4623 200.437 86.6357 200.151 85.8541 199.941V198.476C86.2524 198.543 86.6206 198.724 86.9062 199.024L87.3496 198.468C86.9738 198.085 86.4778 197.844 85.8541 197.784V197.085H85.3205V197.777C84.3886 197.844 83.7498 198.423 83.7498 199.197C83.7498 200.144 84.554 200.422 85.3205 200.617V202.256C84.7569 202.188 84.3135 201.895 84.0204 201.572L83.592 202.151C83.9753 202.579 84.5464 202.887 85.3205 202.94V203.608H85.8541V202.932C86.9964 202.842 87.4623 202.158 87.4623 201.437ZM84.5239 199.144C84.5239 198.754 84.8395 198.483 85.3205 198.446V199.798C84.8696 199.671 84.5239 199.505 84.5239 199.144ZM85.8541 202.256V200.76C86.3275 200.903 86.6958 201.076 86.6958 201.504C86.6958 201.82 86.4703 202.188 85.8541 202.256ZM89.9306 202.128C90.2538 202.579 90.9001 202.947 91.7719 202.947C92.9067 202.947 93.6056 202.338 93.6056 201.497C93.6056 200.708 92.9142 200.317 92.4407 200.272C92.9367 200.182 93.5304 199.813 93.5304 199.114C93.5304 198.273 92.7939 197.769 91.7719 197.769C90.9677 197.769 90.374 198.107 89.9983 198.551L90.3966 199.017C90.7648 198.641 91.1782 198.438 91.7042 198.438C92.2979 198.438 92.7789 198.709 92.7789 199.22C92.7789 199.738 92.2829 199.964 91.6742 199.964C91.4788 199.964 91.2157 199.964 91.1331 199.956V200.64C91.2082 200.632 91.4713 200.632 91.6742 200.632C92.4031 200.632 92.854 200.865 92.854 201.422C92.854 201.948 92.4407 202.278 91.7493 202.278C91.1857 202.278 90.6671 202.023 90.3515 201.639L89.9306 202.128ZM94.4054 202.466C94.4054 202.722 94.6158 202.94 94.8713 202.94C95.1269 202.94 95.3448 202.722 95.3448 202.466C95.3448 202.211 95.1269 202 94.8713 202C94.6158 202 94.4054 202.211 94.4054 202.466ZM96.1661 202.857H99.6982V202.196H97.361C98.7363 201.136 99.6756 200.257 99.6756 199.28C99.6756 198.28 98.8264 197.769 97.9246 197.769C97.2257 197.769 96.5418 198.047 96.1285 198.566L96.5719 199.054C96.88 198.686 97.3384 198.438 97.9321 198.438C98.4206 198.438 98.9091 198.694 98.9091 199.28C98.9091 200.069 98.0449 200.82 96.1661 202.263V202.857ZM100.561 200.354C100.561 201.594 101.132 202.947 102.523 202.947C103.913 202.947 104.484 201.594 104.484 200.354C104.484 199.114 103.913 197.769 102.523 197.769C101.132 197.769 100.561 199.114 100.561 200.354ZM103.717 200.354C103.717 201.331 103.409 202.278 102.523 202.278C101.636 202.278 101.328 201.331 101.328 200.354C101.328 199.377 101.636 198.438 102.523 198.438C103.409 198.438 103.717 199.377 103.717 200.354ZM105.177 200.354C105.177 201.594 105.748 202.947 107.139 202.947C108.529 202.947 109.1 201.594 109.1 200.354C109.1 199.114 108.529 197.769 107.139 197.769C105.748 197.769 105.177 199.114 105.177 200.354ZM108.334 200.354C108.334 201.331 108.026 202.278 107.139 202.278C106.252 202.278 105.944 201.331 105.944 200.354C105.944 199.377 106.252 198.438 107.139 198.438C108.026 198.438 108.334 199.377 108.334 200.354ZM109.979 203.834C110.362 203.563 110.64 203.112 110.64 202.624C110.64 202.226 110.392 202 110.114 202C109.859 202 109.656 202.203 109.656 202.459C109.656 202.707 109.829 202.887 110.062 202.887C110.099 202.887 110.159 202.872 110.174 202.872C110.137 203.12 109.904 203.421 109.663 203.571L109.979 203.834ZM111.371 200.354C111.371 201.594 111.943 202.947 113.333 202.947C114.723 202.947 115.294 201.594 115.294 200.354C115.294 199.114 114.723 197.769 113.333 197.769C111.943 197.769 111.371 199.114 111.371 200.354ZM114.528 200.354C114.528 201.331 114.22 202.278 113.333 202.278C112.446 202.278 112.138 201.331 112.138 200.354C112.138 199.377 112.446 198.438 113.333 198.438C114.22 198.438 114.528 199.377 114.528 200.354ZM115.988 200.354C115.988 201.594 116.559 202.947 117.949 202.947C119.339 202.947 119.911 201.594 119.911 200.354C119.911 199.114 119.339 197.769 117.949 197.769C116.559 197.769 115.988 199.114 115.988 200.354ZM119.144 200.354C119.144 201.331 118.836 202.278 117.949 202.278C117.062 202.278 116.754 201.331 116.754 200.354C116.754 199.377 117.062 198.438 117.949 198.438C118.836 198.438 119.144 199.377 119.144 200.354ZM78.999 216.362C78.999 217.737 79.5627 218.947 80.9981 218.947C82.1028 218.947 82.8017 218.188 82.8017 217.286C82.8017 216.219 82.0427 215.678 81.1408 215.678C80.5246 215.678 79.9835 216.076 79.7656 216.415C79.758 216.362 79.758 216.309 79.758 216.249C79.758 215.317 80.2165 214.438 81.1258 214.438C81.6218 214.438 81.9149 214.626 82.1704 214.919L82.5387 214.348C82.2155 214.002 81.7571 213.769 81.1258 213.769C79.6904 213.769 78.999 214.957 78.999 216.362ZM82.0427 217.309C82.0427 217.752 81.6819 218.278 80.9605 218.278C80.1413 218.278 79.8332 217.579 79.7731 216.993C80.0361 216.595 80.487 216.324 80.953 216.324C81.5467 216.324 82.0427 216.64 82.0427 217.309ZM83.5886 218.158C83.9793 218.647 84.5505 218.947 85.4072 218.947C86.4669 218.947 87.2484 218.301 87.2484 217.271C87.2484 216.242 86.4894 215.663 85.6477 215.663C85.1592 215.663 84.7384 215.866 84.4979 216.106V214.506H86.9178V213.844H83.7464V216.595L84.2875 216.768C84.6181 216.452 84.9789 216.317 85.4147 216.317C86.061 216.317 86.4894 216.7 86.4894 217.301C86.4894 217.85 86.0535 218.278 85.3997 218.278C84.8135 218.278 84.3626 218.053 84.0319 217.647L83.5886 218.158ZM88.058 218.158C88.4488 218.647 89.02 218.947 89.8767 218.947C90.9363 218.947 91.7179 218.301 91.7179 217.271C91.7179 216.242 90.9589 215.663 90.1172 215.663C89.6287 215.663 89.2078 215.866 88.9674 216.106V214.506H91.3872V213.844H88.2158V216.595L88.7569 216.768C89.0876 216.452 89.4483 216.317 89.8842 216.317C90.5305 216.317 90.9589 216.7 90.9589 217.301C90.9589 217.85 90.523 218.278 89.8692 218.278C89.283 218.278 88.8321 218.053 88.5014 217.647L88.058 218.158ZM96.1695 217.331H97.9732V216.745H96.1695V217.331ZM100.691 218.857H103.103C104.028 218.857 104.554 218.293 104.554 217.504C104.554 216.895 104.118 216.354 103.584 216.272C104.043 216.174 104.456 215.753 104.456 215.122C104.456 214.393 103.937 213.844 103.043 213.844H100.691V218.857ZM101.442 215.971V214.506H102.9C103.404 214.506 103.682 214.829 103.682 215.242C103.682 215.655 103.404 215.971 102.9 215.971H101.442ZM101.442 218.196V216.632H102.938C103.494 216.632 103.78 216.993 103.78 217.407C103.78 217.895 103.464 218.196 102.938 218.196H101.442ZM107.708 218.857H108.384V216.407C108.384 215.483 107.715 215.137 106.926 215.137C106.34 215.137 105.844 215.332 105.438 215.731L105.731 216.197C106.054 215.873 106.408 215.716 106.821 215.716C107.339 215.716 107.708 215.986 107.708 216.437V217.038C107.43 216.715 107.009 216.557 106.52 216.557C105.912 216.557 105.258 216.918 105.258 217.745C105.258 218.541 105.919 218.947 106.52 218.947C107.009 218.947 107.422 218.774 107.708 218.459V218.857ZM107.708 218.06C107.505 218.331 107.152 218.474 106.776 218.474C106.287 218.474 105.942 218.181 105.942 217.752C105.942 217.324 106.287 217.031 106.776 217.031C107.152 217.031 107.505 217.174 107.708 217.444V218.06ZM111.918 218.857H112.594V216.309C112.594 215.543 112.196 215.137 111.429 215.137C110.866 215.137 110.385 215.445 110.144 215.738V215.227H109.468V218.857H110.144V216.264C110.34 215.994 110.723 215.738 111.144 215.738C111.61 215.738 111.918 215.934 111.918 216.535V218.857ZM113.44 217.038C113.44 218.128 114.192 218.947 115.289 218.947C115.973 218.947 116.386 218.662 116.649 218.308L116.198 217.895C115.981 218.196 115.687 218.346 115.319 218.346C114.605 218.346 114.147 217.79 114.147 217.038C114.147 216.287 114.605 215.738 115.319 215.738C115.687 215.738 115.981 215.881 116.198 216.189L116.649 215.776C116.386 215.423 115.973 215.137 115.289 215.137C114.192 215.137 113.44 215.949 113.44 217.038ZM119.002 218.947C120.137 218.947 120.836 218.09 120.836 217.038C120.836 215.994 120.137 215.137 119.002 215.137C117.875 215.137 117.169 215.994 117.169 217.038C117.169 218.09 117.875 218.947 119.002 218.947ZM119.002 218.346C118.281 218.346 117.875 217.73 117.875 217.038C117.875 216.354 118.281 215.738 119.002 215.738C119.731 215.738 120.13 216.354 120.13 217.038C120.13 217.73 119.731 218.346 119.002 218.346ZM125.12 218.857H126.06L128.051 213.844H127.194L125.586 218.038L123.985 213.844H123.129L125.12 218.857ZM129.798 218.947C130.933 218.947 131.632 218.09 131.632 217.038C131.632 215.994 130.933 215.137 129.798 215.137C128.671 215.137 127.964 215.994 127.964 217.038C127.964 218.09 128.671 218.947 129.798 218.947ZM129.798 218.346C129.077 218.346 128.671 217.73 128.671 217.038C128.671 216.354 129.077 215.738 129.798 215.738C130.527 215.738 130.925 216.354 130.925 217.038C130.925 217.73 130.527 218.346 129.798 218.346ZM133.49 218.947C133.843 218.947 134.054 218.849 134.196 218.714L134.024 218.203C133.956 218.278 133.813 218.346 133.655 218.346C133.422 218.346 133.302 218.158 133.302 217.903V215.821H134.039V215.227H133.302V214.235H132.626V215.227H132.025V215.821H132.626V218.053C132.626 218.624 132.919 218.947 133.49 218.947ZM136.396 218.947C137.531 218.947 138.23 218.09 138.23 217.038C138.23 215.994 137.531 215.137 136.396 215.137C135.269 215.137 134.562 215.994 134.562 217.038C134.562 218.09 135.269 218.947 136.396 218.947ZM136.396 218.346C135.674 218.346 135.269 217.73 135.269 217.038C135.269 216.354 135.674 215.738 136.396 215.738C137.125 215.738 137.523 216.354 137.523 217.038C137.523 217.73 137.125 218.346 136.396 218.346ZM139.088 218.857H139.765V216.332C139.922 216.061 140.381 215.806 140.719 215.806C140.809 215.806 140.884 215.813 140.952 215.828V215.144C140.471 215.144 140.043 215.423 139.765 215.783V215.227H139.088V218.857ZM143.867 218.857H144.543V216.407C144.543 215.483 143.875 215.137 143.085 215.137C142.499 215.137 142.003 215.332 141.597 215.731L141.891 216.197C142.214 215.873 142.567 215.716 142.98 215.716C143.499 215.716 143.867 215.986 143.867 216.437V217.038C143.589 216.715 143.168 216.557 142.68 216.557C142.071 216.557 141.417 216.918 141.417 217.745C141.417 218.541 142.078 218.947 142.68 218.947C143.168 218.947 143.581 218.774 143.867 218.459V218.857ZM143.867 218.06C143.664 218.331 143.311 218.474 142.935 218.474C142.447 218.474 142.101 218.181 142.101 217.752C142.101 217.324 142.447 217.031 142.935 217.031C143.311 217.031 143.664 217.174 143.867 217.444V218.06ZM148.077 218.857H148.754V216.309C148.754 215.543 148.355 215.137 147.589 215.137C147.025 215.137 146.544 215.445 146.304 215.738V215.227H145.627V218.857H146.304V216.264C146.499 215.994 146.882 215.738 147.303 215.738C147.769 215.738 148.077 215.934 148.077 216.535V218.857ZM150.825 218.947C151.178 218.947 151.388 218.849 151.531 218.714L151.358 218.203C151.291 218.278 151.148 218.346 150.99 218.346C150.757 218.346 150.637 218.158 150.637 217.903V215.821H151.373V215.227H150.637V214.235H149.961V215.227H149.359V215.821H149.961V218.053C149.961 218.624 150.254 218.947 150.825 218.947ZM152.453 214.618C152.694 214.618 152.889 214.431 152.889 214.19C152.889 213.95 152.694 213.754 152.453 213.754C152.22 213.754 152.017 213.95 152.017 214.19C152.017 214.431 152.22 214.618 152.453 214.618ZM152.122 218.857H152.799V215.227H152.122V218.857ZM158.288 218.857H158.964V216.234C158.964 215.505 158.603 215.137 157.935 215.137C157.401 215.137 156.92 215.475 156.71 215.813C156.597 215.423 156.274 215.137 155.725 215.137C155.184 215.137 154.703 215.513 154.553 215.738V215.227H153.876V218.857H154.553V216.264C154.733 216.001 155.086 215.738 155.44 215.738C155.898 215.738 156.078 216.016 156.078 216.437V218.857H156.755V216.257C156.928 215.994 157.288 215.738 157.657 215.738C158.1 215.738 158.288 216.016 158.288 216.437V218.857ZM81.5692 234.947C82.5537 234.947 83.1624 234.474 83.5607 233.887L82.9219 233.549C82.6589 233.97 82.1629 234.278 81.5692 234.278C80.5547 234.278 79.7731 233.474 79.7731 232.354C79.7731 231.227 80.5547 230.431 81.5692 230.431C82.1629 230.431 82.6589 230.739 82.9219 231.159L83.5607 230.821C83.1699 230.235 82.5537 229.762 81.5692 229.762C80.1413 229.762 78.999 230.814 78.999 232.354C78.999 233.895 80.1413 234.947 81.5692 234.947ZM85.9033 234.947C87.0381 234.947 87.737 234.09 87.737 233.038C87.737 231.994 87.0381 231.137 85.9033 231.137C84.776 231.137 84.0696 231.994 84.0696 233.038C84.0696 234.09 84.776 234.947 85.9033 234.947ZM85.9033 234.346C85.1818 234.346 84.776 233.73 84.776 233.038C84.776 232.354 85.1818 231.738 85.9033 231.738C86.6323 231.738 87.0306 232.354 87.0306 233.038C87.0306 233.73 86.6323 234.346 85.9033 234.346ZM91.0457 234.857H91.722V232.309C91.722 231.543 91.3237 231.137 90.5572 231.137C89.9935 231.137 89.5126 231.445 89.2721 231.738V231.227H88.5957V234.857H89.2721V232.264C89.4675 231.994 89.8507 231.738 90.2716 231.738C90.7375 231.738 91.0457 231.934 91.0457 232.535V234.857ZM93.7932 234.947C94.1464 234.947 94.3568 234.849 94.4996 234.714L94.3267 234.203C94.2591 234.278 94.1163 234.346 93.9585 234.346C93.7255 234.346 93.6053 234.158 93.6053 233.903V231.821H94.3418V231.227H93.6053V230.235H92.9289V231.227H92.3277V231.821H92.9289V234.053C92.9289 234.624 93.222 234.947 93.7932 234.947ZM97.3303 234.857H98.0066V232.407C98.0066 231.483 97.3378 231.137 96.5487 231.137C95.9625 231.137 95.4665 231.332 95.0607 231.731L95.3538 232.197C95.6769 231.873 96.0301 231.716 96.4435 231.716C96.962 231.716 97.3303 231.986 97.3303 232.437V233.038C97.0522 232.715 96.6314 232.557 96.1429 232.557C95.5341 232.557 94.8803 232.918 94.8803 233.745C94.8803 234.541 95.5417 234.947 96.1429 234.947C96.6314 234.947 97.0447 234.774 97.3303 234.459V234.857ZM97.3303 234.06C97.1274 234.331 96.7741 234.474 96.3984 234.474C95.9099 234.474 95.5642 234.181 95.5642 233.752C95.5642 233.324 95.9099 233.031 96.3984 233.031C96.7741 233.031 97.1274 233.174 97.3303 233.444V234.06ZM98.9703 231.648C98.9703 231.896 99.1807 232.114 99.4362 232.114C99.6917 232.114 99.9097 231.896 99.9097 231.648C99.9097 231.392 99.6917 231.175 99.4362 231.175C99.1807 231.175 98.9703 231.392 98.9703 231.648ZM98.9703 234.466C98.9703 234.722 99.1807 234.94 99.4362 234.94C99.6917 234.94 99.9097 234.722 99.9097 234.466C99.9097 234.211 99.6917 234 99.4362 234C99.1807 234 98.9703 234.211 98.9703 234.466ZM102.623 232.354C102.623 233.594 103.195 234.947 104.585 234.947C105.975 234.947 106.546 233.594 106.546 232.354C106.546 231.114 105.975 229.769 104.585 229.769C103.195 229.769 102.623 231.114 102.623 232.354ZM105.78 232.354C105.78 233.331 105.472 234.278 104.585 234.278C103.698 234.278 103.39 233.331 103.39 232.354C103.39 231.377 103.698 230.438 104.585 230.438C105.472 230.438 105.78 231.377 105.78 232.354ZM107.24 232.354C107.24 233.594 107.811 234.947 109.201 234.947C110.591 234.947 111.163 233.594 111.163 232.354C111.163 231.114 110.591 229.769 109.201 229.769C107.811 229.769 107.24 231.114 107.24 232.354ZM110.396 232.354C110.396 233.331 110.088 234.278 109.201 234.278C108.314 234.278 108.006 233.331 108.006 232.354C108.006 231.377 108.314 230.438 109.201 230.438C110.088 230.438 110.396 231.377 110.396 232.354ZM111.856 232.354C111.856 233.594 112.427 234.947 113.817 234.947C115.208 234.947 115.779 233.594 115.779 232.354C115.779 231.114 115.208 229.769 113.817 229.769C112.427 229.769 111.856 231.114 111.856 232.354ZM115.012 232.354C115.012 233.331 114.704 234.278 113.817 234.278C112.931 234.278 112.622 233.331 112.622 232.354C112.622 231.377 112.931 230.438 113.817 230.438C114.704 230.438 115.012 231.377 115.012 232.354ZM116.472 232.354C116.472 233.594 117.043 234.947 118.434 234.947C119.824 234.947 120.395 233.594 120.395 232.354C120.395 231.114 119.824 229.769 118.434 229.769C117.043 229.769 116.472 231.114 116.472 232.354ZM119.628 232.354C119.628 233.331 119.32 234.278 118.434 234.278C117.547 234.278 117.239 233.331 117.239 232.354C117.239 231.377 117.547 230.438 118.434 230.438C119.32 230.438 119.628 231.377 119.628 232.354ZM121.088 232.354C121.088 233.594 121.66 234.947 123.05 234.947C124.44 234.947 125.011 233.594 125.011 232.354C125.011 231.114 124.44 229.769 123.05 229.769C121.66 229.769 121.088 231.114 121.088 232.354ZM124.245 232.354C124.245 233.331 123.937 234.278 123.05 234.278C122.163 234.278 121.855 233.331 121.855 232.354C121.855 231.377 122.163 230.438 123.05 230.438C123.937 230.438 124.245 231.377 124.245 232.354ZM125.584 233.331H127.388V232.745H125.584V233.331ZM127.958 232.354C127.958 233.594 128.529 234.947 129.919 234.947C131.309 234.947 131.881 233.594 131.881 232.354C131.881 231.114 131.309 229.769 129.919 229.769C128.529 229.769 127.958 231.114 127.958 232.354ZM131.114 232.354C131.114 233.331 130.806 234.278 129.919 234.278C129.032 234.278 128.724 233.331 128.724 232.354C128.724 231.377 129.032 230.438 129.919 230.438C130.806 230.438 131.114 231.377 131.114 232.354Z" fill="#855B35"/>
<path d="M78.999 302.936C78.999 304.176 79.5702 305.529 80.9605 305.529C82.3508 305.529 82.9219 304.176 82.9219 302.936C82.9219 301.696 82.3508 300.351 80.9605 300.351C79.5702 300.351 78.999 301.696 78.999 302.936ZM82.1554 302.936C82.1554 303.913 81.8473 304.86 80.9605 304.86C80.0737 304.86 79.7656 303.913 79.7656 302.936C79.7656 301.959 80.0737 301.02 80.9605 301.02C81.8473 301.02 82.1554 301.959 82.1554 302.936ZM83.6153 302.936C83.6153 304.176 84.1864 305.529 85.5767 305.529C86.967 305.529 87.5382 304.176 87.5382 302.936C87.5382 301.696 86.967 300.351 85.5767 300.351C84.1864 300.351 83.6153 301.696 83.6153 302.936ZM86.7716 302.936C86.7716 303.913 86.4635 304.86 85.5767 304.86C84.6899 304.86 84.3818 303.913 84.3818 302.936C84.3818 301.959 84.6899 301.02 85.5767 301.02C86.4635 301.02 86.7716 301.959 86.7716 302.936ZM88.0938 305.048C88.0938 305.304 88.3043 305.522 88.5598 305.522C88.8153 305.522 89.0332 305.304 89.0332 305.048C89.0332 304.793 88.8153 304.582 88.5598 304.582C88.3043 304.582 88.0938 304.793 88.0938 305.048ZM89.8094 302.936C89.8094 304.176 90.3806 305.529 91.7709 305.529C93.1612 305.529 93.7323 304.176 93.7323 302.936C93.7323 301.696 93.1612 300.351 91.7709 300.351C90.3806 300.351 89.8094 301.696 89.8094 302.936ZM92.9658 302.936C92.9658 303.913 92.6577 304.86 91.7709 304.86C90.8841 304.86 90.576 303.913 90.576 302.936C90.576 301.959 90.8841 301.02 91.7709 301.02C92.6577 301.02 92.9658 301.959 92.9658 302.936ZM94.4257 302.936C94.4257 304.176 94.9968 305.529 96.3871 305.529C97.7774 305.529 98.3486 304.176 98.3486 302.936C98.3486 301.696 97.7774 300.351 96.3871 300.351C94.9968 300.351 94.4257 301.696 94.4257 302.936ZM97.582 302.936C97.582 303.913 97.2739 304.86 96.3871 304.86C95.5003 304.86 95.1922 303.913 95.1922 302.936C95.1922 301.959 95.5003 301.02 96.3871 301.02C97.2739 301.02 97.582 301.959 97.582 302.936ZM99.0419 302.936C99.0419 304.176 99.6131 305.529 101.003 305.529C102.394 305.529 102.965 304.176 102.965 302.936C102.965 301.696 102.394 300.351 101.003 300.351C99.6131 300.351 99.0419 301.696 99.0419 302.936ZM102.198 302.936C102.198 303.913 101.89 304.86 101.003 304.86C100.117 304.86 99.8085 303.913 99.8085 302.936C99.8085 301.959 100.117 301.02 101.003 301.02C101.89 301.02 102.198 301.959 102.198 302.936ZM103.52 305.048C103.52 305.304 103.731 305.522 103.986 305.522C104.242 305.522 104.46 305.304 104.46 305.048C104.46 304.793 104.242 304.582 103.986 304.582C103.731 304.582 103.52 304.793 103.52 305.048ZM105.236 302.936C105.236 304.176 105.807 305.529 107.198 305.529C108.588 305.529 109.159 304.176 109.159 302.936C109.159 301.696 108.588 300.351 107.198 300.351C105.807 300.351 105.236 301.696 105.236 302.936ZM108.392 302.936C108.392 303.913 108.084 304.86 107.198 304.86C106.311 304.86 106.003 303.913 106.003 302.936C106.003 301.959 106.311 301.02 107.198 301.02C108.084 301.02 108.392 301.959 108.392 302.936ZM109.852 302.936C109.852 304.176 110.423 305.529 111.814 305.529C113.204 305.529 113.775 304.176 113.775 302.936C113.775 301.696 113.204 300.351 111.814 300.351C110.423 300.351 109.852 301.696 109.852 302.936ZM113.009 302.936C113.009 303.913 112.701 304.86 111.814 304.86C110.927 304.86 110.619 303.913 110.619 302.936C110.619 301.959 110.927 301.02 111.814 301.02C112.701 301.02 113.009 301.959 113.009 302.936ZM114.469 302.936C114.469 304.176 115.04 305.529 116.43 305.529C117.82 305.529 118.391 304.176 118.391 302.936C118.391 301.696 117.82 300.351 116.43 300.351C115.04 300.351 114.469 301.696 114.469 302.936ZM117.625 302.936C117.625 303.913 117.317 304.86 116.43 304.86C115.543 304.86 115.235 303.913 115.235 302.936C115.235 301.959 115.543 301.02 116.43 301.02C117.317 301.02 117.625 301.959 117.625 302.936ZM118.739 305.589H119.258L121.039 300.276H120.52L118.739 305.589ZM121.382 302.936C121.382 304.176 121.953 305.529 123.343 305.529C124.734 305.529 125.305 304.176 125.305 302.936C125.305 301.696 124.734 300.351 123.343 300.351C121.953 300.351 121.382 301.696 121.382 302.936ZM124.538 302.936C124.538 303.913 124.23 304.86 123.343 304.86C122.457 304.86 122.148 303.913 122.148 302.936C122.148 301.959 122.457 301.02 123.343 301.02C124.23 301.02 124.538 301.959 124.538 302.936ZM125.998 302.936C125.998 304.176 126.569 305.529 127.96 305.529C129.35 305.529 129.921 304.176 129.921 302.936C129.921 301.696 129.35 300.351 127.96 300.351C126.569 300.351 125.998 301.696 125.998 302.936ZM129.155 302.936C129.155 303.913 128.846 304.86 127.96 304.86C127.073 304.86 126.765 303.913 126.765 302.936C126.765 301.959 127.073 301.02 127.96 301.02C128.846 301.02 129.155 301.959 129.155 302.936ZM130.614 302.936C130.614 304.176 131.186 305.529 132.576 305.529C133.966 305.529 134.537 304.176 134.537 302.936C134.537 301.696 133.966 300.351 132.576 300.351C131.186 300.351 130.614 301.696 130.614 302.936ZM133.771 302.936C133.771 303.913 133.463 304.86 132.576 304.86C131.689 304.86 131.381 303.913 131.381 302.936C131.381 301.959 131.689 301.02 132.576 301.02C133.463 301.02 133.771 301.959 133.771 302.936ZM136.275 305.439H137.027V300.426H136.365L135.02 301.802L135.464 302.26L136.275 301.411V305.439ZM137.811 303.913H139.615V303.327H137.811V303.913ZM140.185 302.936C140.185 304.176 140.756 305.529 142.146 305.529C143.536 305.529 144.107 304.176 144.107 302.936C144.107 301.696 143.536 300.351 142.146 300.351C140.756 300.351 140.185 301.696 140.185 302.936ZM143.341 302.936C143.341 303.913 143.033 304.86 142.146 304.86C141.259 304.86 140.951 303.913 140.951 302.936C140.951 301.959 141.259 301.02 142.146 301.02C143.033 301.02 143.341 301.959 143.341 302.936ZM144.801 302.936C144.801 304.176 145.372 305.529 146.762 305.529C148.153 305.529 148.724 304.176 148.724 302.936C148.724 301.696 148.153 300.351 146.762 300.351C145.372 300.351 144.801 301.696 144.801 302.936ZM147.957 302.936C147.957 303.913 147.649 304.86 146.762 304.86C145.875 304.86 145.567 303.913 145.567 302.936C145.567 301.959 145.875 301.02 146.762 301.02C147.649 301.02 147.957 301.959 147.957 302.936ZM78.999 318.944C78.999 320.319 79.5627 321.529 80.9981 321.529C82.1028 321.529 82.8017 320.77 82.8017 319.868C82.8017 318.801 82.0427 318.26 81.1408 318.26C80.5246 318.26 79.9835 318.658 79.7656 318.997C79.758 318.944 79.758 318.891 79.758 318.831C79.758 317.899 80.2165 317.02 81.1258 317.02C81.6218 317.02 81.9149 317.208 82.1704 317.501L82.5387 316.93C82.2155 316.584 81.7571 316.351 81.1258 316.351C79.6904 316.351 78.999 317.539 78.999 318.944ZM82.0427 319.891C82.0427 320.334 81.6819 320.86 80.9605 320.86C80.1413 320.86 79.8332 320.161 79.7731 319.575C80.0361 319.177 80.487 318.906 80.953 318.906C81.5467 318.906 82.0427 319.222 82.0427 319.891ZM83.5886 320.74C83.9793 321.229 84.5505 321.529 85.4072 321.529C86.4669 321.529 87.2484 320.883 87.2484 319.853C87.2484 318.824 86.4894 318.245 85.6477 318.245C85.1592 318.245 84.7384 318.448 84.4979 318.688V317.088H86.9178V316.426H83.7464V319.177L84.2875 319.35C84.6181 319.034 84.9789 318.899 85.4147 318.899C86.061 318.899 86.4894 319.282 86.4894 319.883C86.4894 320.432 86.0535 320.86 85.3997 320.86C84.8135 320.86 84.3626 320.635 84.0319 320.229L83.5886 320.74ZM88.058 320.74C88.4488 321.229 89.02 321.529 89.8767 321.529C90.9363 321.529 91.7179 320.883 91.7179 319.853C91.7179 318.824 90.9589 318.245 90.1172 318.245C89.6287 318.245 89.2078 318.448 88.9674 318.688V317.088H91.3872V316.426H88.2158V319.177L88.7569 319.35C89.0876 319.034 89.4483 318.899 89.8842 318.899C90.5305 318.899 90.9589 319.282 90.9589 319.883C90.9589 320.432 90.523 320.86 89.8692 320.86C89.283 320.86 88.8321 320.635 88.5014 320.229L88.058 320.74ZM96.1695 319.913H97.9732V319.327H96.1695V319.913ZM100.691 321.439H103.103C104.028 321.439 104.554 320.875 104.554 320.086C104.554 319.478 104.118 318.936 103.584 318.854C104.043 318.756 104.456 318.335 104.456 317.704C104.456 316.975 103.937 316.426 103.043 316.426H100.691V321.439ZM101.442 318.553V317.088H102.9C103.404 317.088 103.682 317.411 103.682 317.824C103.682 318.238 103.404 318.553 102.9 318.553H101.442ZM101.442 320.778V319.214H102.938C103.494 319.214 103.78 319.575 103.78 319.989C103.78 320.477 103.464 320.778 102.938 320.778H101.442ZM107.708 321.439H108.384V318.989C108.384 318.065 107.715 317.719 106.926 317.719C106.34 317.719 105.844 317.914 105.438 318.313L105.731 318.779C106.054 318.455 106.408 318.298 106.821 318.298C107.339 318.298 107.708 318.568 107.708 319.019V319.62C107.43 319.297 107.009 319.139 106.52 319.139C105.912 319.139 105.258 319.5 105.258 320.327C105.258 321.123 105.919 321.529 106.52 321.529C107.009 321.529 107.422 321.356 107.708 321.041V321.439ZM107.708 320.642C107.505 320.913 107.152 321.056 106.776 321.056C106.287 321.056 105.942 320.763 105.942 320.334C105.942 319.906 106.287 319.613 106.776 319.613C107.152 319.613 107.505 319.756 107.708 320.026V320.642ZM111.918 321.439H112.594V318.891C112.594 318.125 112.196 317.719 111.429 317.719C110.866 317.719 110.385 318.027 110.144 318.32V317.809H109.468V321.439H110.144V318.846C110.34 318.576 110.723 318.32 111.144 318.32C111.61 318.32 111.918 318.516 111.918 319.117V321.439ZM113.44 319.62C113.44 320.71 114.192 321.529 115.289 321.529C115.973 321.529 116.386 321.244 116.649 320.89L116.198 320.477C115.981 320.778 115.687 320.928 115.319 320.928C114.605 320.928 114.147 320.372 114.147 319.62C114.147 318.869 114.605 318.32 115.319 318.32C115.687 318.32 115.981 318.463 116.198 318.771L116.649 318.358C116.386 318.005 115.973 317.719 115.289 317.719C114.192 317.719 113.44 318.531 113.44 319.62ZM119.002 321.529C120.137 321.529 120.836 320.672 120.836 319.62C120.836 318.576 120.137 317.719 119.002 317.719C117.875 317.719 117.169 318.576 117.169 319.62C117.169 320.672 117.875 321.529 119.002 321.529ZM119.002 320.928C118.281 320.928 117.875 320.312 117.875 319.62C117.875 318.936 118.281 318.32 119.002 318.32C119.731 318.32 120.13 318.936 120.13 319.62C120.13 320.312 119.731 320.928 119.002 320.928ZM125.12 321.439H126.06L128.051 316.426H127.194L125.586 320.62L123.985 316.426H123.129L125.12 321.439ZM129.798 321.529C130.933 321.529 131.632 320.672 131.632 319.62C131.632 318.576 130.933 317.719 129.798 317.719C128.671 317.719 127.964 318.576 127.964 319.62C127.964 320.672 128.671 321.529 129.798 321.529ZM129.798 320.928C129.077 320.928 128.671 320.312 128.671 319.62C128.671 318.936 129.077 318.32 129.798 318.32C130.527 318.32 130.925 318.936 130.925 319.62C130.925 320.312 130.527 320.928 129.798 320.928ZM133.49 321.529C133.843 321.529 134.054 321.431 134.196 321.296L134.024 320.785C133.956 320.86 133.813 320.928 133.655 320.928C133.422 320.928 133.302 320.74 133.302 320.485V318.403H134.039V317.809H133.302V316.817H132.626V317.809H132.025V318.403H132.626V320.635C132.626 321.206 132.919 321.529 133.49 321.529ZM136.396 321.529C137.531 321.529 138.23 320.672 138.23 319.62C138.23 318.576 137.531 317.719 136.396 317.719C135.269 317.719 134.562 318.576 134.562 319.62C134.562 320.672 135.269 321.529 136.396 321.529ZM136.396 320.928C135.674 320.928 135.269 320.312 135.269 319.62C135.269 318.936 135.674 318.32 136.396 318.32C137.125 318.32 137.523 318.936 137.523 319.62C137.523 320.312 137.125 320.928 136.396 320.928ZM139.088 321.439H139.765V318.914C139.922 318.643 140.381 318.388 140.719 318.388C140.809 318.388 140.884 318.395 140.952 318.41V317.726C140.471 317.726 140.043 318.005 139.765 318.365V317.809H139.088V321.439ZM143.867 321.439H144.543V318.989C144.543 318.065 143.875 317.719 143.085 317.719C142.499 317.719 142.003 317.914 141.597 318.313L141.891 318.779C142.214 318.455 142.567 318.298 142.98 318.298C143.499 318.298 143.867 318.568 143.867 319.019V319.62C143.589 319.297 143.168 319.139 142.68 319.139C142.071 319.139 141.417 319.5 141.417 320.327C141.417 321.123 142.078 321.529 142.68 321.529C143.168 321.529 143.581 321.356 143.867 321.041V321.439ZM143.867 320.642C143.664 320.913 143.311 321.056 142.935 321.056C142.447 321.056 142.101 320.763 142.101 320.334C142.101 319.906 142.447 319.613 142.935 319.613C143.311 319.613 143.664 319.756 143.867 320.026V320.642ZM148.077 321.439H148.754V318.891C148.754 318.125 148.355 317.719 147.589 317.719C147.025 317.719 146.544 318.027 146.304 318.32V317.809H145.627V321.439H146.304V318.846C146.499 318.576 146.882 318.32 147.303 318.32C147.769 318.32 148.077 318.516 148.077 319.117V321.439ZM150.825 321.529C151.178 321.529 151.388 321.431 151.531 321.296L151.358 320.785C151.291 320.86 151.148 320.928 150.99 320.928C150.757 320.928 150.637 320.74 150.637 320.485V318.403H151.373V317.809H150.637V316.817H149.961V317.809H149.359V318.403H149.961V320.635C149.961 321.206 150.254 321.529 150.825 321.529ZM152.453 317.2C152.694 317.2 152.889 317.013 152.889 316.772C152.889 316.532 152.694 316.336 152.453 316.336C152.22 316.336 152.017 316.532 152.017 316.772C152.017 317.013 152.22 317.2 152.453 317.2ZM152.122 321.439H152.799V317.809H152.122V321.439ZM158.288 321.439H158.964V318.816C158.964 318.087 158.603 317.719 157.935 317.719C157.401 317.719 156.92 318.057 156.71 318.395C156.597 318.005 156.274 317.719 155.725 317.719C155.184 317.719 154.703 318.095 154.553 318.32V317.809H153.876V321.439H154.553V318.846C154.733 318.583 155.086 318.32 155.44 318.32C155.898 318.32 156.078 318.598 156.078 319.019V321.439H156.755V318.839C156.928 318.576 157.288 318.32 157.657 318.32C158.1 318.32 158.288 318.598 158.288 319.019V321.439ZM81.5692 337.529C82.5537 337.529 83.1624 337.056 83.5607 336.47L82.9219 336.131C82.6589 336.552 82.1629 336.86 81.5692 336.86C80.5547 336.86 79.7731 336.056 79.7731 334.936C79.7731 333.809 80.5547 333.013 81.5692 333.013C82.1629 333.013 82.6589 333.321 82.9219 333.742L83.5607 333.403C83.1699 332.817 82.5537 332.344 81.5692 332.344C80.1413 332.344 78.999 333.396 78.999 334.936C78.999 336.477 80.1413 337.529 81.5692 337.529ZM85.9033 337.529C87.0381 337.529 87.737 336.672 87.737 335.62C87.737 334.576 87.0381 333.719 85.9033 333.719C84.776 333.719 84.0696 334.576 84.0696 335.62C84.0696 336.672 84.776 337.529 85.9033 337.529ZM85.9033 336.928C85.1818 336.928 84.776 336.312 84.776 335.62C84.776 334.936 85.1818 334.32 85.9033 334.32C86.6323 334.32 87.0306 334.936 87.0306 335.62C87.0306 336.312 86.6323 336.928 85.9033 336.928ZM91.0457 337.439H91.722V334.891C91.722 334.125 91.3237 333.719 90.5572 333.719C89.9935 333.719 89.5126 334.027 89.2721 334.32V333.809H88.5957V337.439H89.2721V334.846C89.4675 334.576 89.8507 334.32 90.2716 334.32C90.7375 334.32 91.0457 334.516 91.0457 335.117V337.439ZM93.7932 337.529C94.1464 337.529 94.3568 337.431 94.4996 337.296L94.3267 336.785C94.2591 336.86 94.1163 336.928 93.9585 336.928C93.7255 336.928 93.6053 336.74 93.6053 336.485V334.403H94.3418V333.809H93.6053V332.817H92.9289V333.809H92.3277V334.403H92.9289V336.635C92.9289 337.206 93.222 337.529 93.7932 337.529ZM97.3303 337.439H98.0066V334.989C98.0066 334.065 97.3378 333.719 96.5487 333.719C95.9625 333.719 95.4665 333.914 95.0607 334.313L95.3538 334.779C95.6769 334.455 96.0301 334.298 96.4435 334.298C96.962 334.298 97.3303 334.568 97.3303 335.019V335.62C97.0522 335.297 96.6314 335.139 96.1429 335.139C95.5341 335.139 94.8803 335.5 94.8803 336.327C94.8803 337.123 95.5417 337.529 96.1429 337.529C96.6314 337.529 97.0447 337.356 97.3303 337.041V337.439ZM97.3303 336.642C97.1274 336.913 96.7741 337.056 96.3984 337.056C95.9099 337.056 95.5642 336.763 95.5642 336.334C95.5642 335.906 95.9099 335.613 96.3984 335.613C96.7741 335.613 97.1274 335.756 97.3303 336.026V336.642ZM98.9703 334.23C98.9703 334.478 99.1807 334.696 99.4362 334.696C99.6917 334.696 99.9097 334.478 99.9097 334.23C99.9097 333.974 99.6917 333.757 99.4362 333.757C99.1807 333.757 98.9703 333.974 98.9703 334.23ZM98.9703 337.048C98.9703 337.304 99.1807 337.522 99.4362 337.522C99.6917 337.522 99.9097 337.304 99.9097 337.048C99.9097 336.793 99.6917 336.582 99.4362 336.582C99.1807 336.582 98.9703 336.793 98.9703 337.048ZM102.623 334.936C102.623 336.176 103.195 337.529 104.585 337.529C105.975 337.529 106.546 336.176 106.546 334.936C106.546 333.696 105.975 332.351 104.585 332.351C103.195 332.351 102.623 333.696 102.623 334.936ZM105.78 334.936C105.78 335.913 105.472 336.86 104.585 336.86C103.698 336.86 103.39 335.913 103.39 334.936C103.39 333.959 103.698 333.02 104.585 333.02C105.472 333.02 105.78 333.959 105.78 334.936ZM107.24 334.936C107.24 336.176 107.811 337.529 109.201 337.529C110.591 337.529 111.163 336.176 111.163 334.936C111.163 333.696 110.591 332.351 109.201 332.351C107.811 332.351 107.24 333.696 107.24 334.936ZM110.396 334.936C110.396 335.913 110.088 336.86 109.201 336.86C108.314 336.86 108.006 335.913 108.006 334.936C108.006 333.959 108.314 333.02 109.201 333.02C110.088 333.02 110.396 333.959 110.396 334.936ZM111.856 334.936C111.856 336.176 112.427 337.529 113.817 337.529C115.208 337.529 115.779 336.176 115.779 334.936C115.779 333.696 115.208 332.351 113.817 332.351C112.427 332.351 111.856 333.696 111.856 334.936ZM115.012 334.936C115.012 335.913 114.704 336.86 113.817 336.86C112.931 336.86 112.622 335.913 112.622 334.936C112.622 333.959 112.931 333.02 113.817 333.02C114.704 333.02 115.012 333.959 115.012 334.936ZM116.472 334.936C116.472 336.176 117.043 337.529 118.434 337.529C119.824 337.529 120.395 336.176 120.395 334.936C120.395 333.696 119.824 332.351 118.434 332.351C117.043 332.351 116.472 333.696 116.472 334.936ZM119.628 334.936C119.628 335.913 119.32 336.86 118.434 336.86C117.547 336.86 117.239 335.913 117.239 334.936C117.239 333.959 117.547 333.02 118.434 333.02C119.32 333.02 119.628 333.959 119.628 334.936ZM121.088 334.936C121.088 336.176 121.66 337.529 123.05 337.529C124.44 337.529 125.011 336.176 125.011 334.936C125.011 333.696 124.44 332.351 123.05 332.351C121.66 332.351 121.088 333.696 121.088 334.936ZM124.245 334.936C124.245 335.913 123.937 336.86 123.05 336.86C122.163 336.86 121.855 335.913 121.855 334.936C121.855 333.959 122.163 333.02 123.05 333.02C123.937 333.02 124.245 333.959 124.245 334.936ZM125.584 335.913H127.388V335.327H125.584V335.913ZM127.958 334.936C127.958 336.176 128.529 337.529 129.919 337.529C131.309 337.529 131.881 336.176 131.881 334.936C131.881 333.696 131.309 332.351 129.919 332.351C128.529 332.351 127.958 333.696 127.958 334.936ZM131.114 334.936C131.114 335.913 130.806 336.86 129.919 336.86C129.032 336.86 128.724 335.913 128.724 334.936C128.724 333.959 129.032 333.02 129.919 333.02C130.806 333.02 131.114 333.959 131.114 334.936Z" fill="#855B35"/>
<circle cx="48.2165" cy="172.808" r="10.5212" fill="#01BDE4"/>
<path d="M44.4585 172.808L45.2507 173.601L47.6558 171.195L47.6558 176.566L48.7763 176.566L48.7763 171.195L51.1814 173.601L51.9736 172.808L48.2161 169.051L44.4585 172.808Z" fill="#FBF9BE"/>
<circle cx="48.2165" cy="275.014" r="10.5212" fill="#01BDE4"/>
<path d="M51.9742 275.014L51.182 274.222L48.7768 276.627V271.257H47.6563V276.627L45.2512 274.222L44.459 275.014L48.2166 278.772L51.9742 275.014Z" fill="#FBF9BE"/>
</g>
<defs>
<linearGradient id="paint0_linear_5737_2615" x1="204.831" y1="-11.8404" x2="43.6912" y2="466.708" gradientUnits="userSpaceOnUse">
<stop stop-color="#F7F7FB"/>
<stop offset="1" stop-color="#E7E7E7"/>
</linearGradient>
<linearGradient id="paint1_linear_5737_2615" x1="208.49" y1="7.28121" x2="-61.0358" y2="556.215" gradientUnits="userSpaceOnUse">
<stop stop-color="white"/>
<stop offset="1" stop-color="#FFF5D5"/>
</linearGradient>
<linearGradient id="paint2_linear_5737_2615" x1="-13.7832" y1="424.174" x2="-66.7641" y2="56.8011" gradientUnits="userSpaceOnUse">
<stop stop-color="#00A5F0"/>
<stop offset="1" stop-color="#00D7D7"/>
</linearGradient>
<linearGradient id="paint3_linear_5737_2615" x1="111.908" y1="334.009" x2="112.095" y2="389.057" gradientUnits="userSpaceOnUse">
<stop stop-color="#CCB579" stop-opacity="0"/>
<stop offset="1" stop-color="#CCB579"/>
</linearGradient>
</defs>
</svg>
