<svg width="398" height="314" viewBox="0 0 398 314" fill="none" xmlns="http://www.w3.org/2000/svg">
<rect y="56" width="344" height="218" rx="8" fill="url(#paint0_linear_5770_519)"/>
<path fill-rule="evenodd" clip-rule="evenodd" d="M71.1545 83.2824C71.4146 83.0174 71.619 82.7037 71.7556 82.3596C71.8922 82.0156 71.9584 81.648 71.9502 81.2783C71.9421 80.9086 71.8598 80.5443 71.7081 80.2064C71.5565 79.8686 71.3386 79.5641 71.067 79.3106C69.3491 77.6965 67.194 76.6136 64.8651 76.1943C62.5362 75.775 60.1345 76.0376 57.9538 76.9497C55.773 77.8619 53.9077 79.3843 52.5859 81.3306C51.2641 83.2769 50.5432 85.5628 50.5114 87.9087C50.5432 90.2547 51.2641 92.5406 52.5859 94.4869C53.9077 96.4332 55.773 97.9555 57.9538 98.8677C60.1345 99.7799 62.5362 100.042 64.8651 99.6232C67.194 99.2039 69.3491 98.121 71.067 96.5069C71.3386 96.2534 71.5565 95.9489 71.7081 95.6111C71.8598 95.2732 71.9421 94.9088 71.9502 94.5392C71.9584 94.1695 71.8922 93.8019 71.7556 93.4578C71.619 93.1138 71.4146 92.8001 71.1545 92.5351C70.6254 91.9972 69.9043 91.6869 69.1466 91.671C68.3889 91.6551 67.6552 91.9348 67.1036 92.45C65.88 93.5945 64.2547 94.2216 62.5724 94.1984C60.8901 94.1752 59.2831 93.5034 58.0921 92.3255C57.5061 91.746 57.0411 91.0575 56.7239 90.2997C56.4066 89.5418 56.2433 88.7293 56.2433 87.9087C56.2433 87.0882 56.4066 86.2757 56.7239 85.5178C57.0411 84.7599 57.5061 84.0715 58.0921 83.492C59.2831 82.3141 60.8901 81.6423 62.5724 81.6191C64.2547 81.5958 65.88 82.223 67.1036 83.3675C67.6553 83.8828 68.389 84.1625 69.1468 84.1464C69.9046 84.1303 70.6256 83.8198 71.1545 83.2816V83.2824ZM86.4436 76.0021C83.24 75.9875 80.1614 77.2331 77.8831 79.4656C75.6049 81.698 74.3131 84.7351 74.291 87.9104C74.291 91.1051 75.5713 94.169 77.8504 96.428C80.1294 98.687 83.2205 99.9561 86.4436 99.9561C89.6666 99.9561 92.7576 98.687 95.0367 96.428C97.3157 94.169 98.5961 91.1051 98.5961 87.9104C98.574 84.7351 97.2822 81.698 95.0039 79.4656C92.7257 77.2331 89.6471 75.9875 86.4436 76.0021ZM86.4436 94.1999C85.1916 94.1858 83.9717 93.8049 82.9376 93.1051C81.9035 92.4054 81.1014 91.4181 80.6321 90.2675C80.1629 89.1169 80.0475 87.8544 80.3005 86.6389C80.5535 85.4235 81.1636 84.3093 82.054 83.4368C82.9444 82.5643 84.0753 81.9723 85.3043 81.7354C86.5334 81.4985 87.8057 81.6273 88.9611 82.1056C90.1165 82.5838 91.1033 83.3901 91.7974 84.4231C92.4915 85.456 92.8618 86.6694 92.8617 87.9104C92.8569 88.7411 92.6871 89.5627 92.362 90.3284C92.0368 91.094 91.5628 91.7887 90.9668 92.3727C90.3708 92.9568 89.6646 93.4187 88.8885 93.7322C88.1124 94.0457 87.2816 94.2046 86.4436 94.1999ZM115.236 76.0021C111.611 75.9871 108.129 77.3972 105.551 79.9234C102.974 82.4495 101.513 85.8854 101.487 89.478C101.485 91.2501 101.839 93.0049 102.53 94.6394C103.22 96.2739 104.234 97.7552 105.51 98.9964C106.05 99.5228 106.777 99.8177 107.535 99.8177C108.293 99.8177 109.02 99.5228 109.56 98.9964C109.826 98.737 110.038 98.4278 110.182 98.0867C110.326 97.7456 110.4 97.3795 110.4 97.0097C110.4 96.6399 110.326 96.2738 110.182 95.9327C110.038 95.5916 109.826 95.2824 109.56 95.023C108.817 94.298 108.226 93.4337 107.823 92.4802C107.42 91.5268 107.213 90.5033 107.213 89.4695C107.213 88.4357 107.42 87.4123 107.823 86.4588C108.226 85.5054 108.817 84.641 109.56 83.9161C111.072 82.4421 113.107 81.6161 115.228 81.6161C117.348 81.6161 119.383 82.4421 120.895 83.9161C121.638 84.641 122.229 85.5054 122.632 86.4588C123.035 87.4123 123.243 88.4357 123.243 89.4695C123.243 90.5033 123.035 91.5268 122.632 92.4802C122.229 93.4337 121.638 94.298 120.895 95.023C120.629 95.2823 120.418 95.5915 120.273 95.9325C120.129 96.2735 120.055 96.6396 120.055 97.0093C120.055 97.379 120.129 97.7451 120.273 98.0861C120.418 98.4271 120.629 98.7363 120.895 98.9956C121.435 99.522 122.163 99.8169 122.92 99.8169C123.678 99.8169 124.405 99.522 124.946 98.9956C126.225 97.756 127.241 96.2755 127.935 94.641C128.629 93.0066 128.986 91.2512 128.986 89.478C128.96 85.8851 127.499 82.4489 124.921 79.9228C122.343 77.3966 118.86 75.9867 115.236 76.0021ZM24.0646 79.9233C26.642 77.3972 30.1248 75.9871 33.7494 76.0023C37.374 75.9871 40.8568 77.3972 43.4342 79.9233C46.0116 82.4494 47.4733 85.8855 47.4988 89.4782C47.4989 91.2513 47.1415 93.0065 46.4477 94.6408C45.7539 96.2751 44.7376 97.7555 43.4585 98.995C42.9181 99.5214 42.1907 99.8163 41.4331 99.8163C40.6754 99.8163 39.9481 99.5214 39.4076 98.995C39.1417 98.7357 38.9305 98.4264 38.7864 98.0853C38.6422 97.7442 38.568 97.3781 38.568 97.0083C38.568 96.6385 38.6422 96.2724 38.7864 95.9313C38.9305 95.5902 39.1417 95.281 39.4076 95.0216C40.1513 94.2967 40.742 93.4322 41.1452 92.4787C41.5483 91.5252 41.756 90.5016 41.756 89.4677C41.756 88.4339 41.5483 87.4103 41.1452 86.4568C40.742 85.5033 40.1513 84.6388 39.4076 83.9139C37.896 82.4399 35.8605 81.6138 33.7401 81.6138C31.6196 81.6138 29.5841 82.4399 28.0725 83.9139C27.3289 84.6388 26.7382 85.5033 26.335 86.4568C25.9318 87.4103 25.7242 88.4339 25.7242 89.4677C25.7242 90.5016 25.9318 91.5252 26.335 92.4787C26.7382 93.4322 27.3289 94.2967 28.0725 95.0216C28.3385 95.281 28.5497 95.5902 28.6938 95.9313C28.838 96.2724 28.9122 96.6385 28.9122 97.0083C28.9122 97.3781 28.838 97.7442 28.6938 98.0853C28.5497 98.4264 28.3385 98.7357 28.0725 98.995C27.5321 99.5214 26.8048 99.8163 26.0471 99.8163C25.2895 99.8163 24.5621 99.5214 24.0217 98.995C22.746 97.754 21.7331 96.2729 21.0425 94.6386C20.3519 93.0044 19.9975 91.25 20 89.4782C20.0255 85.8855 21.4872 82.4494 24.0646 79.9233ZM65.5277 87.8943C65.5364 89.4449 64.2608 90.709 62.6787 90.7177C61.0966 90.7263 59.807 89.4764 59.7983 87.9258C59.7897 86.3752 61.0652 85.1111 62.6474 85.1025C64.2295 85.0938 65.5191 86.3438 65.5277 87.8943Z" fill="white"/>
<path d="M146.605 81.6063H140.986V95.3937H143.443V90.4511H146.605C149.666 90.4511 150.975 88.2699 150.975 86.0287C150.975 83.8275 149.666 81.6063 146.605 81.6063ZM146.484 88.2499H143.443V83.7875H146.545C147.954 83.7875 148.518 84.9481 148.518 86.0287C148.518 87.1493 147.934 88.2499 146.484 88.2499Z" fill="white"/>
<path d="M161.724 90.6312C161.724 87.7096 159.609 85.8486 156.911 85.8486C154.232 85.8486 151.977 87.7296 151.977 90.7112C151.977 93.6328 154.112 95.5938 156.931 95.5938C158.643 95.5938 160.294 94.8734 161.16 93.5127L159.609 92.3321C159.045 93.0925 158.079 93.4927 157.052 93.4927C155.662 93.4927 154.655 92.8323 154.393 91.5316H161.663C161.704 91.1915 161.724 90.8913 161.724 90.6312ZM154.393 89.9108C154.675 88.49 155.682 87.8897 156.951 87.8897C158.26 87.8897 159.247 88.6301 159.388 89.9108H154.393Z" fill="white"/>
<path d="M165.179 84.1677C166.024 84.1677 166.709 83.5474 166.709 82.7469C166.709 81.9265 166.024 81.3262 165.179 81.3262C164.353 81.3262 163.668 81.9265 163.668 82.7469C163.668 83.5474 164.353 84.1677 165.179 84.1677ZM161.312 99.9561H162.54C165.179 99.9561 166.347 98.3353 166.347 95.7339V86.0487H164.011V95.7339C164.031 96.7945 163.688 97.795 162.46 97.795H161.312V99.9561Z" fill="white"/>
<path d="M173.53 95.5938C176.209 95.5938 178.545 93.6528 178.545 90.6912C178.545 87.7296 176.209 85.8486 173.53 85.8486C170.852 85.8486 168.536 87.7296 168.536 90.6912C168.536 93.6528 170.852 95.5938 173.53 95.5938ZM173.53 93.4327C172.08 93.4327 170.892 92.3321 170.892 90.6912C170.892 89.0903 172.08 88.0097 173.53 88.0097C174.98 88.0097 176.189 89.0903 176.189 90.6912C176.189 92.3321 174.98 93.4327 173.53 93.4327Z" fill="white"/>
<path d="M185.741 86.0487H183.748V82.6069H181.412V86.0487H179.72V87.9097H181.412V95.3937H183.748V87.9097H185.741V86.0487Z" fill="white"/>
<path d="M194.54 86.0487V87.2894C193.896 86.3088 192.587 85.8486 191.399 85.8486C188.922 85.8486 186.787 87.7096 186.787 90.7112C186.787 93.6928 188.942 95.5938 191.419 95.5938C192.567 95.5938 193.896 95.1336 194.54 94.133V95.3937H196.876V86.0487H194.54ZM191.781 93.4126C190.331 93.4126 189.143 92.252 189.143 90.6912C189.143 89.1303 190.331 88.0097 191.781 88.0097C193.131 88.0097 194.5 89.0503 194.5 90.6912C194.5 92.3321 193.211 93.4126 191.781 93.4126Z" fill="white"/>
<rect x="19.75" y="138.667" width="48.5" height="36.5" rx="8.25" fill="url(#paint1_linear_5770_519)"/>
<path opacity="0.5" d="M20 149.417H39.4444" stroke="#BFB985" stroke-linejoin="bevel"/>
<path opacity="0.5" d="M48 149.417H68" stroke="#BFB985" stroke-linejoin="bevel"/>
<path opacity="0.5" d="M20 164.417H40.4167" stroke="#BFB985" stroke-linejoin="bevel"/>
<path opacity="0.5" d="M48 164.417H68" stroke="#BFB985" stroke-linejoin="bevel"/>
<path opacity="0.5" fill-rule="evenodd" clip-rule="evenodd" d="M44.9972 142.887C44.5738 142.086 43.4262 142.086 43.0028 142.887L39 150.461C39 150.461 41 156.072 39 162.472L42.9812 170.855C43.389 171.714 44.611 171.714 45.0188 170.855L49 162.472C49 162.472 47 158.994 49 150.461L44.9972 142.887Z" stroke="#BFB985" stroke-linejoin="bevel"/>
<rect x="19.75" y="138.667" width="48.5" height="36.5" rx="8.25" stroke="url(#paint2_linear_5770_519)" stroke-width="0.5"/>
<g opacity="0.6">
<path d="M78.4043 161.18C79.5571 160.027 80.2047 158.464 80.2047 156.833C80.2047 155.203 79.5571 153.64 78.4043 152.487" stroke="white" stroke-width="2.81967" stroke-linecap="round" stroke-linejoin="round"/>
<path d="M83.1347 164.064C84.772 162.009 85.6634 159.459 85.6631 156.832C85.6627 154.204 84.7707 151.654 83.1328 149.6" stroke="white" stroke-width="2.81967" stroke-linecap="round" stroke-linejoin="round"/>
<path d="M87.3037 166.909C89.4971 164.025 90.6897 160.505 90.7002 156.882C90.7107 153.259 89.5387 149.731 87.3621 146.835" stroke="white" stroke-width="2.81967" stroke-linecap="round" stroke-linejoin="round"/>
<path d="M91.9595 143.874C94.7746 147.763 96.2469 152.463 96.1536 157.263C96.0603 162.063 94.4065 166.702 91.4424 170.478" stroke="white" stroke-width="2.81967" stroke-linecap="round" stroke-linejoin="round"/>
</g>
<path d="M20.5008 244.276C20.5008 243.356 20.7128 242.531 21.1369 241.8C21.57 241.069 22.152 240.5 22.8828 240.094C23.6227 239.679 24.4303 239.472 25.3055 239.472C26.307 239.472 27.1958 239.72 27.9718 240.216C28.7568 240.703 29.3252 241.398 29.6771 242.3H27.8229C27.5793 241.804 27.2409 241.434 26.8078 241.191C26.3747 240.947 25.8739 240.825 25.3055 240.825C24.6829 240.825 24.128 240.965 23.6408 241.245C23.1535 241.524 22.77 241.926 22.4903 242.449C22.2196 242.973 22.0843 243.582 22.0843 244.276C22.0843 244.971 22.2196 245.58 22.4903 246.104C22.77 246.627 23.1535 247.033 23.6408 247.322C24.128 247.601 24.6829 247.741 25.3055 247.741C25.8739 247.741 26.3747 247.619 26.8078 247.376C27.2409 247.132 27.5793 246.762 27.8229 246.266H29.6771C29.3252 247.168 28.7568 247.863 27.9718 248.35C27.1958 248.838 26.307 249.081 25.3055 249.081C24.4212 249.081 23.6137 248.878 22.8828 248.472C22.152 248.057 21.57 247.484 21.1369 246.753C20.7128 246.022 20.5008 245.197 20.5008 244.276ZM37.154 247.078H33.2155L32.5388 249H30.9282L34.2983 239.58H36.0848L39.4549 249H37.8307L37.154 247.078ZM36.7209 245.819L35.1915 241.448L33.6486 245.819H36.7209ZM45.8061 249L43.6406 245.237H42.4631V249H40.9202V239.594H44.1685C44.8903 239.594 45.4993 239.72 45.9956 239.973C46.5009 240.225 46.8753 240.564 47.119 240.988C47.3716 241.412 47.4979 241.885 47.4979 242.409C47.4979 243.022 47.3175 243.582 46.9565 244.087C46.6046 244.583 46.0588 244.922 45.3189 245.102L47.6468 249H45.8061ZM42.4631 244.006H44.1685C44.7459 244.006 45.179 243.861 45.4678 243.573C45.7655 243.284 45.9144 242.896 45.9144 242.409C45.9144 241.921 45.77 241.543 45.4813 241.272C45.1926 240.992 44.7549 240.852 44.1685 240.852H42.4631V244.006ZM53.7621 249.095C52.8869 249.095 52.0794 248.892 51.3395 248.486C50.6086 248.071 50.0266 247.498 49.5935 246.767C49.1695 246.027 48.9574 245.197 48.9574 244.276C48.9574 243.356 49.1695 242.531 49.5935 241.8C50.0266 241.069 50.6086 240.5 51.3395 240.094C52.0794 239.679 52.8869 239.472 53.7621 239.472C54.6464 239.472 55.4539 239.679 56.1848 240.094C56.9247 240.5 57.5067 241.069 57.9307 241.8C58.3548 242.531 58.5669 243.356 58.5669 244.276C58.5669 245.197 58.3548 246.027 57.9307 246.767C57.5067 247.498 56.9247 248.071 56.1848 248.486C55.4539 248.892 54.6464 249.095 53.7621 249.095ZM53.7621 247.755C54.3847 247.755 54.9396 247.615 55.4269 247.335C55.9141 247.047 56.2931 246.64 56.5638 246.117C56.8435 245.585 56.9833 244.971 56.9833 244.276C56.9833 243.582 56.8435 242.973 56.5638 242.449C56.2931 241.926 55.9141 241.524 55.4269 241.245C54.9396 240.965 54.3847 240.825 53.7621 240.825C53.1396 240.825 52.5846 240.965 52.0974 241.245C51.6102 241.524 51.2267 241.926 50.947 242.449C50.6763 242.973 50.5409 243.582 50.5409 244.276C50.5409 244.971 50.6763 245.585 50.947 246.117C51.2267 246.64 51.6102 247.047 52.0974 247.335C52.5846 247.615 53.1396 247.755 53.7621 247.755ZM61.6281 247.755H64.8087V249H60.0851V239.594H61.6281V247.755ZM67.6419 239.594V249H66.099V239.594H67.6419ZM77.3958 249H75.8528L71.2105 241.976V249H69.6676V239.58H71.2105L75.8528 246.591V239.58H77.3958V249ZM80.9648 240.839V243.6H84.2131V244.858H80.9648V247.741H84.6191V249H79.4219V239.58H84.6191V240.839H80.9648ZM95.7062 247.078H91.7677L91.091 249H89.4804L92.8505 239.58H94.637L98.0071 249H96.383L95.7062 247.078ZM95.2731 245.819L93.7438 241.448L92.2008 245.819H95.2731ZM104.358 249L102.193 245.237H101.015V249H99.4724V239.594H102.721C103.442 239.594 104.052 239.72 104.548 239.973C105.053 240.225 105.428 240.564 105.671 240.988C105.924 241.412 106.05 241.885 106.05 242.409C106.05 243.022 105.87 243.582 105.509 244.087C105.157 244.583 104.611 244.922 103.871 245.102L106.199 249H104.358ZM101.015 244.006H102.721C103.298 244.006 103.731 243.861 104.02 243.573C104.318 243.284 104.467 242.896 104.467 242.409C104.467 241.921 104.322 241.543 104.034 241.272C103.745 240.992 103.307 240.852 102.721 240.852H101.015V244.006ZM113.695 247.078H109.756L109.08 249H107.469L110.839 239.58L112.626 239.58L115.996 249H114.372L113.695 247.078ZM113.262 245.819L111.732 241.448L110.189 245.819H113.262ZM118.99 239.594V245.589C118.99 246.302 119.175 246.839 119.545 247.2C119.924 247.561 120.448 247.741 121.115 247.741C121.792 247.741 122.315 247.561 122.685 247.2C123.064 246.839 123.254 246.302 123.254 245.589V239.594H124.797V245.562C124.797 246.329 124.63 246.979 124.296 247.511C123.962 248.044 123.515 248.441 122.956 248.702C122.397 248.964 121.778 249.095 121.102 249.095C120.425 249.095 119.807 248.964 119.248 248.702C118.697 248.441 118.26 248.044 117.935 247.511C117.61 246.979 117.447 246.329 117.447 245.562V239.594H118.99ZM122.509 237.577L119.518 239.052V237.915L122.509 236.264V237.577ZM131.935 239.594V246.374C131.935 247.213 131.678 247.877 131.164 248.364C130.658 248.851 129.991 249.095 129.161 249.095C128.33 249.095 127.658 248.851 127.144 248.364C126.639 247.877 126.386 247.213 126.386 246.374H127.942C127.951 246.789 128.055 247.119 128.254 247.362C128.461 247.606 128.764 247.728 129.161 247.728C129.558 247.728 129.86 247.606 130.067 247.362C130.275 247.11 130.379 246.78 130.379 246.374V239.594H131.935ZM138.736 249.095C137.86 249.095 137.053 248.892 136.313 248.486C135.582 248.071 135 247.498 134.567 246.767C134.143 246.027 133.931 245.197 133.931 244.276C133.931 243.356 134.143 242.531 134.567 241.8C135 241.069 135.582 240.5 136.313 240.094C137.053 239.679 137.86 239.472 138.736 239.472C139.62 239.472 140.427 239.679 141.158 240.094C141.898 240.5 142.48 241.069 142.904 241.8C143.328 242.531 143.54 243.356 143.54 244.276C143.54 245.197 143.328 246.027 142.904 246.767C142.48 247.498 141.898 248.071 141.158 248.486C140.427 248.892 139.62 249.095 138.736 249.095ZM138.736 247.755C139.358 247.755 139.913 247.615 140.4 247.335C140.888 247.047 141.266 246.64 141.537 246.117C141.817 245.585 141.957 244.971 141.957 244.276C141.957 243.582 141.817 242.973 141.537 242.449C141.266 241.926 140.888 241.524 140.4 241.245C139.913 240.965 139.358 240.825 138.736 240.825C138.113 240.825 137.558 240.965 137.071 241.245C136.584 241.524 136.2 241.926 135.92 242.449C135.65 242.973 135.514 243.582 135.514 244.276C135.514 244.971 135.65 245.585 135.92 246.117C136.2 246.64 136.584 247.047 137.071 247.335C137.558 247.615 138.113 247.755 138.736 247.755Z" fill="white"/>
<path d="M305.522 234.701C303.949 234.145 302.287 233.866 300.613 233.877C295.2 233.877 291.377 236.523 291.35 240.321C291.316 243.111 294.067 244.684 296.147 245.616C298.282 246.575 298.996 247.179 298.989 248.035C298.975 249.339 297.284 249.93 295.711 249.93C293.549 249.93 292.368 249.637 290.552 248.905L289.878 248.6L289.11 252.973C290.426 253.504 292.798 253.961 295.247 254C301.002 254 304.764 251.371 304.808 247.33C304.855 245.101 303.367 243.417 300.234 242.025C298.329 241.122 297.149 240.518 297.149 239.602C297.149 238.791 298.16 237.925 300.275 237.925C301.682 237.892 303.08 238.148 304.378 238.677L304.886 238.896L305.654 234.672L305.522 234.701V234.701ZM319.568 234.232H315.34C314.024 234.232 313.032 234.583 312.457 235.85L304.324 253.728H310.079L311.229 250.796L318.252 250.803C318.418 251.489 318.926 253.728 318.926 253.728H324L319.568 234.232V234.232ZM283.565 234.068H289.049L285.619 253.573H280.142L283.565 234.061V234.068V234.068ZM269.644 244.818L270.212 247.527L275.571 234.232H281.38L272.75 253.701H266.954L262.218 237.216C262.141 236.944 261.961 236.71 261.714 236.562C260.007 235.707 258.198 235.057 256.328 234.629L256.403 234.219H265.229C266.427 234.265 267.391 234.629 267.712 235.87L269.641 244.828V244.818H269.644ZM312.802 246.808L314.988 241.352C314.961 241.411 315.438 240.226 315.715 239.494L316.091 241.178L317.359 246.804H312.799V246.808H312.802Z" fill="white"/>
<g clip-path="url(#clip0_5770_519)">
<path opacity="0.45" d="M312 0.000903393C289.329 -0.103472 267.543 8.84032 251.42 24.8702C235.298 40.9001 226.156 62.7072 226 85.5074C226 108.447 235.061 130.446 251.189 146.667C267.317 162.887 289.191 172 312 172C334.809 172 356.683 162.887 372.811 146.667C388.939 130.446 398 108.447 398 85.5074C397.844 62.7072 388.702 40.9001 372.579 24.8702C356.457 8.84032 334.671 -0.103472 312 0.000903393V0.000903393ZM312 130.668C303.14 130.567 294.508 127.832 287.19 122.808C279.872 117.783 274.195 110.694 270.874 102.432C267.553 94.1703 266.737 85.1052 268.527 76.3777C270.318 67.6501 274.636 59.6504 280.937 53.3852C287.238 47.12 295.241 42.8695 303.938 41.1686C312.636 39.4676 321.64 40.3924 329.816 43.8264C337.992 47.2603 344.976 53.0501 349.887 60.4669C354.799 67.8837 357.42 76.5961 357.419 85.5074C357.386 91.4721 356.184 97.3717 353.883 102.869C351.582 108.367 348.227 113.355 344.01 117.549C339.792 121.742 334.794 125.059 329.302 127.31C323.81 129.561 317.931 130.702 312 130.668Z" fill="url(#paint3_linear_5770_519)"/>
<path opacity="0.45" d="M85.9951 164.001C63.3246 163.907 41.5411 172.788 25.421 188.698C9.30086 204.609 0.159527 226.25 8.99938e-05 248.877C-0.0162799 260.038 2.20077 271.09 6.52126 281.385C10.8417 291.68 17.1785 301.01 25.16 308.827C28.5402 312.142 33.0897 314 37.8287 314C42.5676 314 47.1171 312.142 50.4974 308.827C52.1607 307.194 53.4817 305.246 54.3833 303.098C55.285 300.949 55.7492 298.643 55.7492 296.314C55.7492 293.985 55.285 291.679 54.3833 289.531C53.4817 287.383 52.1607 285.435 50.4974 283.801C45.8465 279.235 42.1526 273.791 39.6312 267.786C37.1098 261.781 35.8114 255.335 35.8114 248.824C35.8114 242.312 37.1098 235.866 39.6312 229.861C42.1526 223.856 45.8465 218.412 50.4974 213.846C59.9513 204.562 72.6821 199.36 85.9444 199.36C99.2066 199.36 111.937 204.562 121.391 213.846C126.042 218.412 129.736 223.856 132.258 229.861C134.779 235.866 136.077 242.312 136.077 248.824C136.077 255.335 134.779 261.781 132.258 267.786C129.736 273.791 126.042 279.235 121.391 283.801C119.728 285.434 118.407 287.382 117.505 289.53C116.604 291.677 116.14 293.983 116.14 296.312C116.14 298.64 116.604 300.946 117.505 303.094C118.407 305.242 119.728 307.189 121.391 308.822C124.772 312.137 129.321 313.995 134.06 313.995C138.799 313.995 143.349 312.137 146.729 308.822C154.73 301.015 161.087 291.69 165.427 281.395C169.767 271.101 172.001 260.045 172 248.877C171.841 226.248 162.698 204.605 146.575 188.695C130.453 172.784 108.667 163.904 85.9951 164.001V164.001Z" fill="url(#paint4_linear_5770_519)"/>
</g>
<path opacity="0.45" d="M85.9951 164.001C63.3246 163.907 41.5411 172.788 25.421 188.698C9.30086 204.609 0.159527 226.25 8.99938e-05 248.877C-0.0162799 260.038 2.20077 271.09 6.52126 281.385C10.8417 291.68 17.1785 301.01 25.16 308.827C28.5402 312.142 33.0897 314 37.8287 314C42.5676 314 47.1171 312.142 50.4974 308.827C52.1607 307.194 53.4817 305.246 54.3833 303.098C55.285 300.949 55.7492 298.643 55.7492 296.314C55.7492 293.985 55.285 291.679 54.3833 289.531C53.4817 287.383 52.1607 285.435 50.4974 283.801C45.8465 279.235 42.1526 273.791 39.6312 267.786C37.1098 261.781 35.8114 255.335 35.8114 248.824C35.8114 242.312 37.1098 235.866 39.6312 229.861C42.1526 223.856 45.8465 218.412 50.4974 213.846C59.9513 204.562 72.6821 199.36 85.9444 199.36C99.2066 199.36 111.937 204.562 121.391 213.846C126.042 218.412 129.736 223.856 132.258 229.861C134.779 235.866 136.077 242.312 136.077 248.824C136.077 255.335 134.779 261.781 132.258 267.786C129.736 273.791 126.042 279.235 121.391 283.801C119.728 285.434 118.407 287.382 117.505 289.53C116.604 291.677 116.14 293.983 116.14 296.312C116.14 298.64 116.604 300.946 117.505 303.094C118.407 305.242 119.728 307.189 121.391 308.822C124.772 312.137 129.321 313.995 134.06 313.995C138.799 313.995 143.349 312.137 146.729 308.822C154.73 301.015 161.087 291.69 165.427 281.395C169.767 271.101 172.001 260.045 172 248.877C171.841 226.248 162.698 204.605 146.575 188.695C130.453 172.784 108.667 163.904 85.9951 164.001V164.001Z" fill="url(#paint5_linear_5770_519)"/>
<path opacity="0.45" d="M312 0.000903393C289.329 -0.103472 267.543 8.84032 251.42 24.8702C235.298 40.9001 226.156 62.7072 226 85.5074C226 108.447 235.061 130.446 251.189 146.667C267.317 162.887 289.191 172 312 172C334.809 172 356.683 162.887 372.811 146.667C388.939 130.446 398 108.447 398 85.5074C397.844 62.7072 388.702 40.9001 372.579 24.8702C356.457 8.84032 334.671 -0.103472 312 0.000903393V0.000903393ZM312 130.668C303.14 130.567 294.508 127.832 287.19 122.808C279.872 117.783 274.195 110.694 270.874 102.432C267.553 94.1703 266.737 85.1052 268.527 76.3777C270.318 67.6501 274.636 59.6504 280.937 53.3852C287.238 47.12 295.241 42.8695 303.938 41.1686C312.636 39.4676 321.64 40.3924 329.816 43.8264C337.992 47.2603 344.976 53.0501 349.887 60.4669C354.799 67.8837 357.42 76.5961 357.419 85.5074C357.386 91.4721 356.184 97.3717 353.883 102.869C351.582 108.367 348.227 113.355 344.01 117.549C339.792 121.742 334.794 125.059 329.302 127.31C323.81 129.561 317.931 130.702 312 130.668Z" fill="url(#paint6_linear_5770_519)"/>
<defs>
<linearGradient id="paint0_linear_5770_519" x1="-145.317" y1="98.8371" x2="371.926" y2="374.367" gradientUnits="userSpaceOnUse">
<stop stop-color="#00A5F0"/>
<stop offset="1" stop-color="#00D7D7"/>
</linearGradient>
<linearGradient id="paint1_linear_5770_519" x1="44" y1="138.917" x2="61.6817" y2="188.184" gradientUnits="userSpaceOnUse">
<stop stop-color="#DCD59E"/>
<stop offset="1" stop-color="#CBBB82"/>
</linearGradient>
<linearGradient id="paint2_linear_5770_519" x1="23.2" y1="140.966" x2="45.1352" y2="174.166" gradientUnits="userSpaceOnUse">
<stop stop-color="#FBF3C0"/>
<stop offset="1" stop-color="#CCBC84"/>
</linearGradient>
<linearGradient id="paint3_linear_5770_519" x1="266.794" y1="-66.6989" x2="359.87" y2="157.413" gradientUnits="userSpaceOnUse">
<stop stop-color="white"/>
<stop offset="1" stop-color="white" stop-opacity="0"/>
</linearGradient>
<linearGradient id="paint4_linear_5770_519" x1="148.806" y1="323.146" x2="40.3516" y2="210.85" gradientUnits="userSpaceOnUse">
<stop stop-color="white"/>
<stop offset="1" stop-color="white" stop-opacity="0"/>
</linearGradient>
<linearGradient id="paint5_linear_5770_519" x1="148.806" y1="323.146" x2="40.3516" y2="210.85" gradientUnits="userSpaceOnUse">
<stop stop-color="white"/>
<stop offset="1" stop-color="white" stop-opacity="0"/>
</linearGradient>
<linearGradient id="paint6_linear_5770_519" x1="266.794" y1="-66.6989" x2="359.87" y2="157.413" gradientUnits="userSpaceOnUse">
<stop stop-color="white"/>
<stop offset="1" stop-color="white" stop-opacity="0"/>
</linearGradient>
<clipPath id="clip0_5770_519">
<rect width="344" height="218" fill="white" transform="translate(0 56)"/>
</clipPath>
</defs>
</svg>
