<svg
  width="6"
  height="84"
  viewBox="0 0 6 84"
  fill="none"
  xmlns="http://www.w3.org/2000/svg"
>
  <path
    opacity="0.6"
    fill-rule="evenodd"
    clip-rule="evenodd"
    d="M5.5 2.5C5.5 3.88071 4.38071 5 3 5C1.61929 5 0.5 3.88071 0.5 2.5C0.5 1.11929 1.61929 0 3 0C4.38071 0 5.5 1.11929 5.5 2.5ZM5.5 15.6667C5.5 17.0474 4.38071 18.1667 3 18.1667C1.61929 18.1667 0.5 17.0474 0.5 15.6667C0.5 14.286 1.61929 13.1667 3 13.1667C4.38071 13.1667 5.5 14.286 5.5 15.6667ZM3 31.3333C4.38071 31.3333 5.5 30.214 5.5 28.8333C5.5 27.4526 4.38071 26.3333 3 26.3333C1.61929 26.3333 0.5 27.4526 0.5 28.8333C0.5 30.214 1.61929 31.3333 3 31.3333ZM5.5 42C5.5 43.3807 4.38071 44.5 3 44.5C1.61929 44.5 0.5 43.3807 0.5 42C0.5 40.6193 1.61929 39.5 3 39.5C4.38071 39.5 5.5 40.6193 5.5 42ZM3 57.6667C4.38071 57.6667 5.5 56.5474 5.5 55.1667C5.5 53.786 4.38071 52.6667 3 52.6667C1.61929 52.6667 0.5 53.786 0.5 55.1667C0.5 56.5474 1.61929 57.6667 3 57.6667ZM5.5 68.3333C5.5 69.7141 4.38071 70.8333 3 70.8333C1.61929 70.8333 0.5 69.7141 0.5 68.3333C0.5 66.9526 1.61929 65.8333 3 65.8333C4.38071 65.8333 5.5 66.9526 5.5 68.3333ZM3 84C4.38071 84 5.5 82.8807 5.5 81.5C5.5 80.1193 4.38071 79 3 79C1.61929 79 0.5 80.1193 0.5 81.5C0.5 82.8807 1.61929 84 3 84Z"
    fill="url(#paint0_linear_5716_1454)"
  />
  <defs>
    <linearGradient
      id="paint0_linear_5716_1454"
      x1="3"
      y1="0"
      x2="3"
      y2="84"
      gradientUnits="userSpaceOnUse"
    >
      <stop stop-color="#01CCDD" stop-opacity="0" />
      <stop offset="1" stop-color="#01CCDD" />
    </linearGradient>
  </defs>
</svg>
